const DISPLAY_OUTPUTS = true

const outputFont = new THREE.Font({"glyphs":{"0":{"ha":803,"x_min":68,"x_max":738,"o":"m 68 344 q 159 603 68 500 q 403 707 250 707 q 646 603 554 707 q 738 344 738 499 q 646 86 738 190 q 403 -18 554 -18 q 160 86 251 -18 q 68 344 68 190 m 403 69 q 611 344 611 69 q 403 619 611 619 q 193 344 193 619 q 403 69 193 69 z "},"1":{"ha":538,"x_min":36,"x_max":500,"o":"m 500 -1 l 65 -1 l 65 93 l 228 93 l 228 561 l 61 510 l 36 575 l 274 690 l 343 690 l 343 93 l 500 93 l 500 -1 z "},"2":{"ha":651,"x_min":47,"x_max":618,"o":"m 590 -1 l 47 -1 l 47 72 l 369 394 q 429 519 429 454 q 402 590 429 561 q 333 619 375 619 q 136 529 246 619 l 79 593 q 203 675 129 643 q 349 707 278 707 q 499 658 438 707 q 561 521 561 608 q 413 281 561 408 l 196 94 l 618 94 l 590 -1 z "},"3":{"ha":569,"x_min":-76,"x_max":503,"o":"m -64 -272 l -76 -197 q 62 -178 -14 -197 q 209 -122 138 -158 q 328 -28 281 -86 q 376 100 376 31 q 247 225 376 225 q 151 210 197 225 l 114 288 q 278 401 201 328 q 354 553 354 475 q 335 603 354 586 q 283 621 317 621 q 201 600 247 621 q 125 551 154 579 l 60 606 q 186 684 132 661 q 319 707 240 707 q 437 667 393 707 q 481 554 481 626 q 423 425 481 490 q 294 314 365 360 l 313 315 l 329 315 q 457 256 411 315 q 503 107 503 197 q 448 -70 503 7 q 305 -189 393 -147 q 123 -251 217 -231 q -64 -272 29 -272 z "},"4":{"ha":690,"x_min":17,"x_max":678,"o":"m 538 -257 l 422 -257 l 422 0 l 17 0 l 17 56 l 401 692 l 538 692 l 538 96 l 678 96 l 653 0 l 538 0 l 538 -257 m 422 96 l 422 554 l 144 96 l 422 96 z "},"5":{"ha":524,"x_min":-8,"x_max":510,"o":"m 14 -290 l -8 -218 q 299 103 299 -122 q 224 271 299 193 q 56 393 150 349 l 182 690 l 510 690 l 476 572 l 231 572 l 182 456 q 356 313 288 404 q 424 111 424 221 q 302 -156 424 -49 q 14 -290 181 -264 z "},"6":{"ha":744,"x_min":68,"x_max":678,"o":"m 624 1017 l 653 946 q 378 763 496 881 q 218 492 261 644 q 415 563 304 563 q 605 481 532 563 q 678 281 678 399 q 593 66 678 150 q 378 -18 508 -18 q 153 83 239 -18 q 68 326 68 185 q 171 668 68 514 q 444 931 274 822 q 624 1017 549 996 m 197 375 q 196 322 196 357 q 242 147 196 224 q 381 69 288 69 q 508 131 465 69 q 551 281 551 193 q 506 413 551 358 q 383 468 460 468 q 197 375 288 468 z "},"7":{"ha":590,"x_min":21,"x_max":563,"o":"m 176 -257 l 53 -257 l 428 586 l 21 586 l 49 690 l 563 690 l 563 632 l 176 -257 z "},"8":{"ha":683,"x_min":65,"x_max":614,"o":"m 436 544 l 424 532 q 464 493 426 529 q 510 447 501 457 q 547 404 519 438 q 584 351 575 371 q 603 301 593 332 q 614 239 614 269 q 533 53 614 121 q 331 -15 453 -15 q 144 49 224 -15 q 65 219 65 114 q 76 310 65 271 q 116 385 88 350 q 167 442 144 421 q 235 501 189 463 l 257 519 q 203 574 244 533 q 147 635 161 615 q 115 694 132 654 q 99 778 99 733 q 171 944 99 875 q 342 1013 243 1013 q 512 952 443 1013 q 581 792 581 892 q 557 690 581 739 q 510 616 533 642 q 436 544 486 590 m 353 600 q 469 792 469 703 q 435 890 469 849 q 344 931 401 931 q 258 887 288 931 q 228 785 228 843 q 235 748 228 767 q 249 715 242 729 q 273 682 257 701 q 299 653 289 663 q 328 624 308 643 q 353 600 347 606 m 325 453 l 304 435 q 255 390 269 404 q 218 347 240 375 q 188 290 196 319 q 179 224 179 261 q 223 115 179 163 q 328 68 267 68 q 441 115 397 68 q 485 231 485 161 q 475 282 485 257 q 444 333 465 307 q 408 375 424 358 q 363 418 392 392 q 325 453 333 444 z "},"9":{"ha":744,"x_min":71,"x_max":681,"o":"m 114 -301 l 85 -224 q 531 197 456 -69 q 333 126 444 126 q 147 211 222 126 q 71 408 71 296 q 158 620 71 533 q 371 707 246 707 q 599 609 517 707 q 681 363 681 511 q 576 28 681 175 q 296 -221 471 -119 q 114 -301 188 -282 m 551 314 q 554 367 554 332 q 510 546 554 471 q 369 621 465 621 q 243 556 289 621 q 197 408 197 492 q 243 276 197 331 q 365 221 289 221 q 551 314 461 221 z "},"\u0000":{"ha":0,"x_min":0,"x_max":0,"o":""},"\r":{"ha":319,"x_min":0,"x_max":0,"o":""}," ":{"ha":319,"x_min":0,"x_max":0,"o":""},"$":{"ha":629,"x_min":93,"x_max":550,"o":"m 317 -161 l 215 -161 l 258 -18 q 93 40 185 -10 l 144 125 q 290 69 222 69 q 388 92 347 69 q 429 168 429 115 q 396 242 429 210 q 315 295 363 274 q 219 341 267 317 q 139 407 172 365 q 106 506 106 449 q 172 650 106 597 q 333 707 239 703 l 347 851 l 447 851 l 403 703 q 535 658 482 690 l 494 569 q 361 619 429 619 q 266 597 307 619 q 225 525 225 574 q 258 453 225 483 q 340 402 292 422 q 435 358 388 382 q 517 293 483 335 q 550 192 550 251 q 488 43 550 97 q 329 -19 426 -11 l 317 -161 z "},"%":{"ha":1199,"x_min":64,"x_max":1149,"o":"m 928 -7 q 758 75 821 -7 q 694 267 694 157 q 753 458 694 381 q 922 535 811 535 q 1088 454 1026 535 q 1149 267 1149 374 q 1089 77 1149 161 q 928 -7 1029 -7 m 400 -18 l 311 -18 l 767 913 l 456 913 q 518 724 518 836 q 458 535 518 619 q 299 450 399 450 q 128 532 192 450 q 64 724 64 614 q 123 915 64 836 q 292 993 182 993 l 893 993 l 400 -18 m 926 75 q 995 110 968 75 q 1032 184 1022 144 q 1042 264 1042 224 q 1031 344 1042 303 q 993 420 1021 385 q 924 456 965 456 q 831 391 864 456 q 797 261 797 326 q 831 135 797 196 q 926 75 865 75 m 296 532 q 365 567 338 532 q 403 642 393 601 q 413 721 413 682 q 383 850 413 788 q 293 913 353 913 q 223 877 253 913 q 181 799 193 842 q 168 718 168 757 q 201 592 168 653 q 296 532 235 532 z "},"&":{"ha":943,"x_min":71,"x_max":925,"o":"m 925 0 l 840 0 q 628 115 740 0 q 349 -18 501 -18 q 153 63 236 -18 q 71 257 71 144 q 282 547 71 424 q 201 765 201 656 q 264 899 201 849 q 411 950 326 950 q 551 903 492 950 q 610 778 610 857 q 432 538 610 653 l 642 285 q 701 492 689 381 l 788 472 q 701 214 769 329 q 740 171 718 196 q 769 138 761 146 q 792 117 778 129 q 823 103 807 106 q 863 99 839 101 q 925 96 886 96 l 925 0 m 382 607 q 501 774 501 683 q 476 843 501 815 q 410 871 450 871 q 340 841 367 871 q 314 768 314 811 q 382 607 314 700 m 568 182 q 329 479 468 300 q 189 267 189 388 q 242 140 189 189 q 374 92 294 92 q 568 182 469 92 z "},"'":{"ha":314,"x_min":99,"x_max":215,"o":"m 176 618 l 136 618 q 126 663 135 622 q 108 740 117 703 q 99 778 99 776 l 99 1025 l 215 1025 l 215 778 q 206 740 215 776 q 188 663 197 703 q 176 618 178 622 z "},"(":{"ha":425,"x_min":61,"x_max":396,"o":"m 396 -179 l 303 -192 q 61 419 61 89 q 303 1032 61 754 l 396 1018 q 183 419 183 757 q 396 -179 183 82 z "},")":{"ha":425,"x_min":29,"x_max":364,"o":"m 122 -192 l 29 -179 q 243 419 243 86 q 29 1018 243 753 l 122 1032 q 364 419 364 754 q 122 -192 364 89 z "},"*":{"ha":708,"x_min":100,"x_max":607,"o":"m 607 790 l 417 751 l 399 810 l 567 899 l 607 790 m 379 821 l 322 821 l 294 1015 l 403 1015 l 379 821 m 544 593 l 457 526 l 363 699 l 408 731 l 544 593 m 289 758 l 100 788 l 129 893 l 307 808 l 289 758 m 247 529 l 163 592 l 294 736 l 342 699 l 247 529 z "},"+":{"ha":892,"x_min":94,"x_max":788,"o":"m 788 299 l 489 299 l 489 0 l 392 0 l 392 299 l 94 299 l 94 393 l 392 393 l 392 690 l 489 690 l 489 393 l 788 393 l 788 299 z "},",":{"ha":326,"x_min":64,"x_max":254,"o":"m 65 -129 q 81 -113 68 -125 q 100 -94 93 -101 q 116 -74 107 -86 q 129 -51 125 -62 q 133 -31 133 -40 q 99 17 133 -15 q 64 89 64 50 q 89 148 64 124 q 150 172 114 172 q 226 138 199 172 q 254 54 254 103 q 113 -176 254 -74 q 65 -129 88 -154 z "},"-":{"ha":435,"x_min":57,"x_max":378,"o":"m 378 311 l 57 311 l 57 415 l 378 415 l 378 311 z "},".":{"ha":317,"x_min":58,"x_max":242,"o":"m 58 78 q 85 143 58 117 q 150 169 111 169 q 215 142 188 169 q 242 78 242 115 q 215 13 242 40 q 150 -14 188 -14 q 85 13 113 -14 q 58 78 58 40 z "},"/":{"ha":453,"x_min":-7,"x_max":460,"o":"m 89 -12 l -7 -12 l 367 1010 l 460 1010 l 89 -12 z "},":":{"ha":460,"x_min":133,"x_max":317,"o":"m 133 74 q 160 139 133 113 q 225 165 186 165 q 290 138 263 165 q 317 74 317 111 q 290 9 317 36 q 225 -18 263 -18 q 160 9 188 -18 q 133 74 133 36 m 133 511 q 160 576 133 550 q 225 603 186 603 q 290 576 263 603 q 317 511 317 549 q 290 447 317 474 q 225 419 263 419 q 160 447 188 419 q 133 511 133 474 z "},";":{"ha":464,"x_min":126,"x_max":317,"o":"m 133 511 q 160 576 133 550 q 225 603 186 603 q 290 576 263 603 q 317 511 317 549 q 290 447 317 474 q 225 419 263 419 q 160 447 188 419 q 133 511 133 474 m 128 -129 q 143 -113 131 -125 q 163 -94 156 -101 q 178 -74 169 -86 q 192 -51 188 -62 q 196 -31 196 -40 q 161 17 196 -15 q 126 89 126 50 q 151 148 126 124 q 213 172 176 172 q 289 138 261 172 q 317 54 317 103 q 175 -176 317 -74 q 128 -129 150 -154 z "},"<":{"ha":875,"x_min":92,"x_max":783,"o":"m 783 -6 l 92 297 l 92 399 l 783 699 l 783 592 l 221 346 l 783 100 l 783 -6 z "},"=":{"ha":875,"x_min":94,"x_max":788,"o":"m 788 425 l 94 425 l 94 522 l 788 522 l 788 425 m 788 157 l 94 157 l 94 254 l 788 254 l 788 157 z "},">":{"ha":875,"x_min":92,"x_max":783,"o":"m 783 297 l 92 -6 l 92 100 l 654 346 l 92 592 l 92 699 l 783 399 l 783 297 z "},"?":{"ha":608,"x_min":71,"x_max":538,"o":"m 308 301 l 218 301 l 218 572 q 358 635 300 586 q 415 761 415 683 q 365 876 415 833 q 242 919 314 919 q 108 881 156 919 l 71 960 q 254 1004 133 1004 q 453 942 368 1004 q 538 769 538 881 q 481 613 538 685 q 342 515 424 542 q 313 501 318 507 q 308 472 308 494 l 308 301 m 167 74 q 193 139 167 113 q 258 165 219 165 q 323 138 296 165 q 350 74 350 111 q 323 9 350 36 q 258 -18 296 -18 q 194 9 221 -18 q 167 74 167 36 z "},"@":{"ha":1154,"x_min":71,"x_max":1082,"o":"m 619 -104 l 636 -161 q 508 -178 574 -178 q 194 -51 318 -178 q 71 267 71 76 q 137 545 71 413 q 333 767 203 678 q 629 856 464 856 q 951 742 821 856 q 1082 432 1082 628 q 1009 182 1082 292 q 819 72 936 72 q 676 157 715 72 q 672 158 675 158 q 599 93 643 117 q 513 69 556 69 q 386 127 428 69 q 344 274 344 185 q 376 422 344 346 q 474 554 407 497 q 624 611 540 611 q 740 561 694 611 q 763 601 749 574 l 814 601 q 758 204 758 235 q 822 132 758 132 q 960 223 907 132 q 1013 432 1013 314 q 903 699 1013 600 q 629 797 793 797 q 425 751 519 797 q 269 628 331 704 q 174 458 208 553 q 140 267 140 364 q 244 -9 140 101 q 508 -119 349 -119 q 619 -104 563 -119 m 708 499 q 619 543 668 543 q 522 492 564 543 q 464 381 481 440 q 447 271 447 321 q 532 138 447 138 q 611 174 578 138 q 664 277 644 210 q 692 388 683 344 q 708 499 700 431 z "},"A":{"ha":876,"x_min":25,"x_max":853,"o":"m 853 0 l 710 0 l 593 347 l 260 347 l 142 0 l 25 0 l 376 1011 l 503 1011 l 853 0 m 561 442 l 428 842 l 292 442 l 561 442 z "},"B":{"ha":853,"x_min":99,"x_max":789,"o":"m 393 0 l 118 0 l 118 919 q 113 942 118 921 q 103 985 108 963 q 99 1011 99 1008 l 436 1011 q 743 776 743 1011 q 697 630 743 694 q 572 551 650 565 q 731 462 674 536 q 789 283 789 388 q 756 138 789 197 q 663 51 724 79 q 540 11 603 22 q 393 0 476 0 m 247 593 l 396 593 q 553 635 499 593 q 608 774 608 676 q 432 915 608 915 l 247 915 l 247 593 m 247 96 l 401 96 q 587 142 522 96 q 651 304 651 188 q 578 450 651 403 q 401 497 506 497 l 247 497 l 247 96 z "},"C":{"ha":867,"x_min":64,"x_max":843,"o":"m 783 174 l 843 81 q 701 9 788 35 q 535 -17 614 -17 q 190 135 315 -17 q 64 508 64 286 q 190 879 64 733 q 538 1025 317 1025 q 706 997 619 1025 q 840 915 793 968 l 768 835 q 663 903 729 878 q 535 928 596 928 q 383 891 449 928 q 281 791 318 854 q 224 655 243 728 q 206 500 206 582 q 224 344 206 417 q 281 214 243 272 q 385 122 319 156 q 538 88 451 88 q 669 111 600 88 q 783 174 738 135 z "},"D":{"ha":971,"x_min":100,"x_max":907,"o":"m 449 0 l 119 0 l 119 919 q 115 942 119 921 q 105 985 110 963 q 100 1011 100 1008 l 360 1011 q 907 503 907 1011 q 791 138 907 275 q 449 0 675 0 m 249 96 l 432 96 q 691 208 610 96 q 772 506 772 321 q 667 818 772 721 q 350 915 563 915 l 249 915 l 249 96 z "},"E":{"ha":763,"x_min":100,"x_max":707,"o":"m 707 0 l 119 0 l 119 919 q 115 942 119 921 q 105 985 110 963 q 100 1011 100 1008 l 707 1011 l 707 915 l 249 915 l 249 567 l 604 567 l 604 472 l 249 472 l 249 96 l 707 96 l 707 0 z "},"F":{"ha":708,"x_min":100,"x_max":660,"o":"m 249 0 l 119 0 l 119 919 q 115 942 119 921 q 105 985 110 963 q 100 1011 100 1008 l 660 1011 l 660 915 l 249 915 l 249 567 l 575 567 l 575 472 l 249 472 l 249 0 z "},"G":{"ha":982,"x_min":65,"x_max":904,"o":"m 904 0 l 835 0 l 790 106 q 499 -17 676 -17 q 308 25 393 -17 q 172 138 224 67 q 92 299 119 208 q 65 493 65 390 q 187 876 65 726 q 535 1025 308 1025 q 718 996 624 1025 q 867 910 813 967 l 793 824 q 669 903 722 881 q 535 925 617 925 q 381 890 447 925 q 276 795 314 856 q 220 662 239 735 q 201 506 201 589 q 219 353 201 425 q 272 220 236 282 q 372 122 308 158 q 521 86 436 86 q 695 156 629 86 q 761 335 761 226 l 761 426 l 513 426 l 529 521 l 892 521 l 892 231 q 904 0 892 229 z "},"H":{"ha":992,"x_min":101,"x_max":871,"o":"m 871 0 l 742 0 l 742 478 l 250 478 l 250 0 l 121 0 l 121 919 q 116 942 121 921 q 106 985 111 963 q 101 1011 101 1008 l 250 1011 l 250 572 l 742 572 l 742 1011 l 871 1011 l 871 0 z "},"I":{"ha":372,"x_min":101,"x_max":250,"o":"m 250 0 l 121 0 l 121 919 q 116 942 121 921 q 106 985 111 963 q 101 1011 101 1008 l 250 1011 l 250 0 z "},"J":{"ha":372,"x_min":-32,"x_max":251,"o":"m -15 -293 l -32 -221 q 53 -184 19 -214 q 100 -106 86 -154 q 118 -18 114 -57 q 122 76 122 21 l 122 919 l 101 1011 l 251 1011 l 251 85 q 245 -27 251 22 q 222 -125 239 -76 q 176 -207 204 -174 q 99 -264 147 -240 q -15 -293 50 -287 z "},"K":{"ha":811,"x_min":100,"x_max":810,"o":"m 810 0 l 649 0 l 249 526 l 249 0 l 119 0 l 119 919 q 115 942 119 921 q 105 985 110 963 q 100 1011 100 1008 l 249 1011 l 249 560 l 650 1011 l 785 1011 l 386 561 l 810 0 z "},"L":{"ha":714,"x_min":100,"x_max":674,"o":"m 674 0 l 119 0 l 119 919 q 115 942 119 921 q 105 985 110 963 q 100 1011 100 1008 l 249 1011 l 249 96 l 674 96 l 674 0 z "},"M":{"ha":1164,"x_min":103,"x_max":1043,"o":"m 1043 0 l 915 0 l 915 826 l 611 -1 l 533 -1 l 229 826 l 229 0 l 124 0 l 124 919 l 103 1011 l 290 1011 l 585 224 l 875 1011 l 1043 1011 l 1043 0 z "},"N":{"ha":992,"x_min":101,"x_max":871,"o":"m 871 -7 l 789 -7 l 226 854 l 226 0 l 121 0 l 121 919 q 116 942 121 921 q 106 985 111 963 q 101 1011 101 1008 l 274 1011 l 765 254 l 765 1011 l 871 1011 l 871 -7 z "},"O":{"ha":1024,"x_min":64,"x_max":960,"o":"m 511 -15 q 315 26 401 -15 q 174 141 228 68 q 92 306 119 214 q 64 504 64 399 q 180 876 64 726 q 513 1025 296 1025 q 844 876 728 1025 q 960 504 960 726 q 912 246 960 361 q 760 58 864 131 q 511 -15 657 -15 m 825 504 q 808 656 825 583 q 757 790 792 728 q 660 890 722 853 q 513 928 597 928 q 365 890 428 928 q 268 789 303 853 q 217 653 233 725 q 201 503 201 582 q 217 352 201 424 q 268 217 233 281 q 365 117 303 154 q 513 79 428 79 q 660 117 597 79 q 758 217 724 154 q 809 352 793 281 q 825 504 825 424 z "},"P":{"ha":799,"x_min":99,"x_max":742,"o":"m 249 0 l 119 0 l 119 919 l 99 1011 l 401 1011 q 651 937 560 1011 q 742 706 742 863 q 646 480 742 560 q 403 400 550 400 l 249 400 l 249 0 m 249 494 l 400 494 q 551 552 496 494 q 607 706 607 610 q 553 860 607 804 q 401 915 500 915 l 249 915 l 249 494 z "},"Q":{"ha":1024,"x_min":64,"x_max":1604,"o":"m 1582 -176 l 1604 -243 q 1508 -277 1540 -267 q 1417 -298 1475 -287 q 1299 -308 1360 -308 q 1118 -276 1225 -308 q 935 -211 1011 -244 q 745 -123 860 -178 q 608 -58 631 -68 q 426 -7 564 -37 q 153 172 242 35 q 64 504 64 308 q 111 763 64 647 q 262 951 158 878 q 513 1025 365 1025 q 710 983 624 1025 q 851 867 797 940 q 932 702 904 794 q 960 504 960 610 q 892 210 960 342 q 685 19 824 79 q 695 15 688 18 q 706 10 703 11 q 1346 -219 1151 -219 q 1582 -176 1440 -219 m 513 928 q 390 903 444 928 q 301 837 336 878 q 244 740 267 796 q 211 625 221 683 q 201 503 201 567 q 218 351 201 422 q 269 216 235 279 q 367 116 304 153 q 513 79 429 79 q 659 116 596 79 q 757 216 722 153 q 808 351 792 279 q 825 504 825 424 q 808 657 825 585 q 757 792 792 729 q 659 891 722 854 q 513 928 596 928 z "},"R":{"ha":821,"x_min":99,"x_max":832,"o":"m 832 0 l 682 0 l 421 457 q 317 454 389 454 l 247 454 l 247 0 l 118 0 l 118 919 q 113 942 118 921 q 103 985 108 963 q 99 1011 99 1008 l 400 1011 q 742 732 742 1011 q 685 577 742 649 q 549 481 629 506 l 832 0 m 247 549 l 358 549 q 540 591 474 549 q 607 740 607 633 q 547 870 607 825 q 400 915 488 915 l 247 915 l 247 549 z "},"S":{"ha":717,"x_min":44,"x_max":674,"o":"m 44 58 l 94 172 q 206 108 140 132 q 331 83 271 83 q 472 128 410 83 q 535 257 535 172 q 487 379 535 329 q 371 459 439 429 q 235 522 303 489 q 120 614 168 554 q 72 761 72 674 q 167 955 72 885 q 389 1025 261 1025 q 650 950 524 1025 l 586 857 q 388 926 489 926 q 260 888 308 926 q 211 772 211 849 q 237 695 211 729 q 303 638 263 661 q 392 592 343 614 q 492 542 442 569 q 582 482 542 515 q 648 396 622 449 q 674 275 674 343 q 574 58 674 133 q 326 -17 474 -17 q 44 58 190 -17 z "},"T":{"ha":803,"x_min":33,"x_max":769,"o":"m 465 0 l 333 0 l 333 915 l 33 915 l 33 1011 l 769 1011 l 769 915 l 465 915 l 465 0 z "},"U":{"ha":982,"x_min":99,"x_max":861,"o":"m 754 358 l 754 1011 l 861 1011 l 861 358 q 763 83 861 182 q 488 -17 665 -17 q 215 74 311 -17 q 119 339 119 165 l 119 919 l 99 1011 l 251 1011 l 251 339 q 312 148 251 217 q 493 79 372 79 q 687 155 619 79 q 754 358 754 231 z "},"V":{"ha":838,"x_min":29,"x_max":808,"o":"m 458 -4 l 378 -4 l 29 1011 l 167 1011 l 428 225 l 697 1013 l 808 1013 l 458 -4 z "},"W":{"ha":1242,"x_min":29,"x_max":1213,"o":"m 936 -7 l 829 -7 l 622 751 l 417 -7 l 310 -7 l 29 1011 l 165 1011 l 375 236 l 583 1011 l 686 1011 l 894 236 l 1104 1011 l 1213 1011 l 936 -7 z "},"X":{"ha":813,"x_min":17,"x_max":796,"o":"m 796 0 l 644 0 l 396 417 l 136 0 l 17 0 l 338 517 l 43 1011 l 192 1011 l 414 640 l 644 1011 l 765 1011 l 471 543 l 796 0 z "},"Y":{"ha":811,"x_min":44,"x_max":768,"o":"m 478 0 l 346 0 l 346 500 l 44 1011 l 194 1011 l 429 618 l 647 1011 l 768 1011 l 478 500 l 478 0 z "},"Z":{"ha":793,"x_min":49,"x_max":746,"o":"m 735 0 l 49 0 l 49 93 l 574 915 l 79 915 l 79 1011 l 728 1011 l 728 918 l 203 96 l 746 96 l 735 0 z "},"[":{"ha":488,"x_min":100,"x_max":389,"o":"m 389 -178 l 100 -178 l 100 1014 l 389 1014 l 389 946 l 213 946 l 213 -110 l 389 -110 l 389 -178 z "},"\\":{"ha":453,"x_min":-4,"x_max":457,"o":"m 457 0 l 364 0 l -4 1011 l 92 1011 l 457 0 z "},"]":{"ha":486,"x_min":99,"x_max":388,"o":"m 388 -176 l 100 -176 l 100 -108 l 275 -108 l 275 946 l 99 946 l 99 1014 l 388 1014 l 388 -176 z "},"^":{"ha":858,"x_min":78,"x_max":781,"o":"m 781 0 l 675 0 l 429 563 l 185 0 l 78 0 l 376 690 l 479 690 l 781 0 z "},"_":{"ha":693,"x_min":-12,"x_max":707,"o":"m 707 -175 l -12 -175 l -12 -92 l 707 -92 l 707 -175 z "},"`":{"ha":390,"x_min":43,"x_max":346,"o":"m 346 800 l 238 800 l 43 1011 l 214 1011 l 346 800 z "},"a":{"ha":686,"x_min":61,"x_max":692,"o":"m 668 101 l 692 29 q 660 16 682 25 q 626 2 639 7 q 593 -8 613 -3 q 558 -12 574 -12 q 492 14 518 -12 q 460 82 467 40 q 251 -15 367 -15 q 115 34 168 -15 q 61 167 61 83 q 457 404 61 401 l 457 478 q 342 617 457 617 q 232 594 288 617 q 143 535 176 572 l 86 617 q 351 707 199 707 q 516 648 460 707 q 572 479 572 589 l 572 135 q 578 94 572 107 q 603 82 585 82 q 668 101 619 82 m 457 269 l 457 314 q 369 310 406 314 q 283 294 332 307 q 206 251 233 282 q 179 171 179 219 q 209 104 179 126 q 289 82 239 82 q 408 140 360 82 q 457 269 457 197 z "},"b":{"ha":775,"x_min":94,"x_max":711,"o":"m 179 -1 l 110 -1 l 114 94 l 114 978 q 109 998 114 979 q 99 1036 104 1017 q 94 1058 94 1056 l 229 1058 l 229 628 q 424 704 314 704 q 635 597 560 704 q 711 349 711 490 q 679 170 711 251 q 576 35 647 89 q 407 -18 506 -18 q 204 71 279 -18 l 179 -1 m 229 529 l 229 276 q 271 125 229 182 q 403 68 313 68 q 512 116 468 68 q 572 223 556 164 q 588 344 588 282 q 540 527 588 449 q 394 606 492 606 q 229 529 301 606 z "},"c":{"ha":625,"x_min":61,"x_max":601,"o":"m 549 139 l 601 51 q 490 -3 536 13 q 374 -18 443 -18 q 148 92 235 -18 q 61 344 61 203 q 149 604 61 501 q 392 707 238 707 q 592 636 499 707 l 529 556 q 456 603 489 590 q 374 617 424 617 q 234 535 283 617 q 185 357 185 453 q 203 233 185 293 q 269 125 222 172 q 381 78 315 78 q 465 92 431 78 q 549 139 500 106 z "},"d":{"ha":775,"x_min":63,"x_max":701,"o":"m 701 3 l 579 -12 q 553 82 560 31 q 349 -18 475 -18 q 138 89 213 -18 q 63 339 63 196 q 142 599 63 492 q 371 706 222 706 q 544 644 478 706 l 544 976 l 525 1058 l 658 1058 l 658 199 q 701 3 658 75 m 544 175 l 544 408 q 502 554 544 497 q 374 611 460 611 q 283 588 321 611 q 224 524 244 564 q 194 441 204 485 q 185 347 185 397 q 233 161 185 239 q 383 83 282 83 q 544 175 464 83 z "},"e":{"ha":686,"x_min":61,"x_max":629,"o":"m 564 143 l 615 60 q 382 -18 519 -18 q 147 83 232 -18 q 61 338 61 183 q 92 514 61 432 q 194 651 124 596 q 361 707 264 707 q 556 635 482 707 q 629 444 629 564 q 558 356 629 356 l 183 356 l 183 342 q 237 160 183 242 q 385 79 290 79 q 481 97 431 79 q 564 143 531 114 m 192 442 l 482 442 q 501 448 497 442 q 506 471 506 454 q 469 576 506 533 q 372 619 433 619 q 255 565 306 619 q 192 442 204 511 z "},"f":{"ha":400,"x_min":28,"x_max":556,"o":"m 246 0 l 132 0 l 132 604 l 28 604 l 28 676 q 52 678 32 676 q 81 683 72 681 q 99 688 90 685 q 116 698 108 692 q 128 713 124 704 q 135 732 132 721 q 150 819 139 749 q 240 1001 171 932 q 421 1069 310 1069 q 556 1035 494 1069 l 524 949 q 424 983 485 983 q 328 956 367 983 q 274 881 290 929 q 251 789 257 832 q 246 690 246 746 l 444 690 l 419 604 l 246 604 l 246 0 z "},"g":{"ha":664,"x_min":29,"x_max":679,"o":"m 654 608 l 506 608 q 551 468 551 549 q 479 298 551 368 q 307 228 407 228 q 280 231 297 228 q 254 233 263 233 q 217 206 235 233 q 199 157 199 179 q 213 121 199 133 q 242 107 228 108 q 283 106 257 106 q 351 108 306 106 q 418 110 397 110 q 635 -36 635 110 q 530 -249 635 -179 q 278 -319 425 -319 q 106 -276 183 -319 q 29 -144 29 -233 q 136 19 29 -54 q 72 121 72 51 q 89 150 72 125 q 168 269 146 228 q 90 356 118 303 q 61 467 61 408 q 133 637 61 567 q 306 707 206 707 q 383 697 332 707 q 458 688 433 688 q 679 708 528 688 l 654 608 m 306 311 q 394 356 357 311 q 431 467 431 401 q 394 578 431 532 q 307 624 357 624 q 219 578 256 624 q 182 468 182 533 q 219 357 182 403 q 306 311 256 311 m 219 -4 q 169 -58 190 -25 q 149 -121 149 -90 q 197 -197 149 -168 q 299 -225 246 -225 q 458 -189 388 -225 q 528 -76 528 -153 q 515 -35 528 -51 q 479 -11 503 -18 q 435 -2 456 -4 q 386 0 415 0 q 219 -4 303 0 z "},"h":{"ha":760,"x_min":96,"x_max":647,"o":"m 647 0 l 533 0 l 533 425 q 531 490 533 465 q 517 545 528 515 q 482 590 507 575 q 418 606 457 606 q 228 514 338 606 l 228 0 l 114 0 l 114 976 q 110 997 114 978 q 101 1035 106 1015 q 96 1058 96 1056 l 228 1058 l 228 608 q 438 708 333 708 q 647 463 647 708 l 647 0 z "},"i":{"ha":349,"x_min":89,"x_max":257,"o":"m 257 922 q 233 862 257 886 q 172 838 208 838 q 113 863 138 838 q 89 922 89 888 q 113 982 89 957 q 172 1007 138 1007 q 232 982 207 1007 q 257 922 257 957 m 232 0 l 117 0 l 117 608 q 113 628 117 610 q 104 667 108 647 q 100 690 100 688 l 232 690 l 232 0 z "},"j":{"ha":349,"x_min":15,"x_max":260,"o":"m 260 922 q 235 862 260 886 q 175 838 211 838 q 115 862 139 838 q 90 922 90 886 q 115 982 90 957 q 175 1007 140 1007 q 235 982 210 1007 q 260 922 260 957 m 35 -317 l 15 -261 q 65 -220 44 -246 q 95 -170 85 -194 q 110 -107 106 -146 q 116 -46 115 -68 q 117 18 117 -24 l 117 608 q 113 628 117 610 q 103 667 108 647 q 99 690 99 688 l 232 690 l 232 35 q 35 -317 232 -290 z "},"k":{"ha":646,"x_min":94,"x_max":647,"o":"m 647 0 l 510 0 l 228 375 l 228 0 l 113 0 l 113 976 q 108 997 113 978 q 99 1035 104 1015 q 94 1058 94 1056 l 228 1058 l 228 406 l 486 690 l 610 690 l 344 400 l 647 0 z "},"l":{"ha":349,"x_min":99,"x_max":232,"o":"m 232 0 l 117 0 l 117 978 q 113 997 117 979 q 103 1035 108 1015 q 99 1058 99 1056 l 232 1058 l 232 0 z "},"m":{"ha":1151,"x_min":67,"x_max":1038,"o":"m 1038 0 l 922 0 l 922 424 q 919 488 922 461 q 905 544 915 514 q 869 589 894 574 q 807 604 844 604 q 629 510 729 604 q 632 461 632 482 l 632 0 l 517 0 l 517 424 q 514 489 517 463 q 500 544 511 515 q 465 589 489 574 q 401 604 440 604 q 226 513 328 604 l 226 0 l 111 0 l 111 501 q 67 686 111 614 l 193 700 q 219 604 213 653 q 421 707 325 707 q 611 592 556 707 q 826 707 726 707 q 987 641 936 707 q 1038 461 1038 575 l 1038 0 z "},"n":{"ha":760,"x_min":65,"x_max":644,"o":"m 644 0 l 531 0 l 531 424 q 529 476 531 456 q 522 524 528 497 q 503 566 515 550 q 469 593 492 582 q 414 604 446 604 q 225 513 322 604 l 225 0 l 111 0 l 111 489 q 65 685 111 622 l 192 701 q 218 603 213 649 q 433 707 322 707 q 594 641 543 707 q 644 461 644 575 l 644 0 z "},"o":{"ha":744,"x_min":61,"x_max":685,"o":"m 372 -18 q 144 88 226 -18 q 61 344 61 194 q 144 600 61 493 q 372 707 228 707 q 602 601 519 707 q 685 344 685 496 q 602 88 685 193 q 372 -18 519 -18 m 372 69 q 485 115 440 69 q 547 220 531 161 q 563 344 563 279 q 546 469 563 410 q 484 574 529 528 q 372 619 439 619 q 260 574 306 619 q 199 469 215 528 q 183 344 183 410 q 201 224 183 283 q 265 117 219 164 q 372 69 310 69 z "},"p":{"ha":772,"x_min":69,"x_max":708,"o":"m 246 -300 l 113 -300 l 113 489 q 69 685 113 617 l 192 700 q 218 606 211 657 q 421 706 297 706 q 633 599 558 706 q 708 349 708 492 q 628 89 708 196 q 399 -18 547 -18 q 226 43 292 -18 l 226 -218 l 246 -300 m 226 513 l 226 279 q 268 133 226 190 q 396 76 310 76 q 487 100 449 76 q 546 163 525 124 q 576 247 567 203 q 586 340 586 292 q 538 526 586 449 q 386 604 489 604 q 226 513 304 604 z "},"q":{"ha":772,"x_min":61,"x_max":676,"o":"m 676 -300 l 543 -300 l 543 60 q 349 -17 461 -17 q 190 38 257 -17 q 92 172 122 93 q 61 340 61 251 q 140 600 61 493 q 364 707 218 707 q 568 617 494 707 l 593 690 l 663 690 l 658 594 l 658 -218 q 663 -238 658 -219 q 672 -277 667 -257 q 676 -300 676 -297 m 543 160 l 543 411 q 501 563 543 506 q 369 619 460 619 q 260 572 304 619 q 201 466 217 525 q 185 344 185 407 q 233 162 185 240 q 378 83 281 83 q 468 104 422 83 q 543 160 514 125 z "},"r":{"ha":485,"x_min":68,"x_max":451,"o":"m 228 0 l 113 0 l 113 500 q 68 688 113 622 l 193 703 q 225 574 218 642 q 324 667 263 632 q 451 703 385 703 l 424 581 q 228 458 311 581 l 228 0 z "},"s":{"ha":597,"x_min":71,"x_max":526,"o":"m 71 40 l 119 125 q 267 69 200 69 q 365 92 324 69 q 407 167 407 114 q 374 240 407 208 q 292 293 340 271 q 197 340 244 315 q 117 406 150 364 q 83 506 83 447 q 154 655 83 603 q 326 707 225 707 q 511 658 432 707 l 471 569 q 339 619 406 619 q 243 597 285 619 q 201 525 201 575 q 235 452 201 483 q 316 399 268 421 q 412 353 364 378 q 493 286 460 329 q 526 183 526 243 q 456 31 526 81 q 278 -18 386 -18 q 71 40 185 -18 z "},"t":{"ha":454,"x_min":28,"x_max":426,"o":"m 407 88 l 426 10 q 289 -15 344 -15 q 167 30 204 -15 q 131 164 131 75 l 131 603 l 28 603 l 28 672 q 189 888 149 675 l 276 888 q 246 690 246 763 l 426 690 l 401 603 l 246 603 l 246 161 q 262 95 246 117 q 319 74 278 74 q 407 88 351 74 z "},"u":{"ha":768,"x_min":93,"x_max":765,"o":"m 742 101 l 765 29 q 734 16 756 25 q 699 2 713 7 q 667 -8 686 -3 q 632 -12 647 -12 q 567 14 592 -12 q 535 82 542 40 q 322 -18 438 -18 q 162 48 213 -18 q 111 228 111 114 l 111 608 q 107 628 111 610 q 98 667 103 647 q 93 690 93 688 l 226 690 l 226 265 q 230 201 226 228 q 244 146 233 175 q 279 101 254 117 q 342 85 304 85 q 475 134 419 85 q 531 261 531 183 l 531 608 q 526 628 531 610 q 517 667 522 647 q 513 690 513 688 l 646 690 l 646 135 q 652 94 646 107 q 676 82 658 82 q 742 101 693 82 z "},"v":{"ha":632,"x_min":17,"x_max":615,"o":"m 368 -8 l 263 -8 l 17 690 l 139 690 l 324 165 l 507 690 l 615 690 l 368 -8 z "},"w":{"ha":914,"x_min":18,"x_max":897,"o":"m 679 -8 l 596 -8 l 456 469 l 307 -8 l 222 -8 l 18 690 l 138 690 l 278 218 l 425 690 l 507 690 l 649 218 l 794 690 l 897 690 l 679 -8 z "},"x":{"ha":619,"x_min":14,"x_max":606,"o":"m 606 -1 l 474 -1 l 303 267 l 128 -1 l 14 -1 l 244 353 l 29 690 l 161 690 l 313 451 l 472 690 l 585 690 l 371 365 l 606 -1 z "},"y":{"ha":633,"x_min":17,"x_max":617,"o":"m 106 -301 l 53 -301 l 53 -208 l 68 -208 q 143 -190 110 -208 q 201 -135 176 -171 q 240 -68 225 -99 q 269 6 254 -37 l 17 690 l 142 690 l 325 165 l 508 690 l 617 690 l 372 -3 q 106 -301 265 -301 z "},"z":{"ha":618,"x_min":44,"x_max":574,"o":"m 558 0 l 44 0 l 44 65 l 401 601 l 76 601 l 76 690 l 557 690 l 557 624 l 199 88 l 574 88 l 558 0 z "},"{":{"ha":485,"x_min":81,"x_max":406,"o":"m 406 -187 l 371 -187 q 169 39 169 -187 l 169 267 q 149 351 169 317 q 81 386 128 386 l 81 449 q 169 583 169 449 l 169 796 q 375 1022 169 1022 l 406 1022 l 406 957 q 306 933 329 957 q 282 835 282 910 l 282 599 q 190 417 282 449 q 282 236 282 385 l 282 -11 q 308 -101 282 -79 q 406 -122 335 -122 l 406 -187 z "},"|":{"ha":326,"x_min":114,"x_max":213,"o":"m 213 -149 l 114 -149 l 114 1039 l 213 1039 l 213 -149 z "},"}":{"ha":485,"x_min":81,"x_max":406,"o":"m 111 -187 l 81 -187 l 81 -122 q 179 -98 156 -122 q 203 0 203 -74 l 203 236 q 294 417 203 385 q 203 599 203 449 l 203 846 q 176 935 203 913 q 81 957 150 957 l 81 1022 l 90 1022 q 262 969 208 1022 q 315 796 315 917 l 315 568 q 337 483 315 518 q 406 449 358 449 l 406 386 q 315 251 315 386 l 315 39 q 111 -187 315 -187 z "},"~":{"ha":921,"x_min":117,"x_max":804,"o":"m 732 479 l 804 414 q 715 321 771 361 q 606 281 660 281 q 455 328 550 281 q 307 376 360 376 q 240 347 271 376 q 190 279 208 318 l 117 340 q 195 440 143 399 q 307 481 247 481 q 474 433 374 481 q 606 385 574 385 q 678 413 643 385 q 732 479 713 440 z "},"¡":{"ha":457,"x_min":138,"x_max":321,"o":"m 286 -175 l 174 -175 q 149 -153 149 -175 l 189 532 l 269 532 l 311 -156 q 286 -175 311 -175 m 138 761 q 164 826 138 800 q 229 853 190 853 q 294 826 267 853 q 321 761 321 799 q 294 697 321 724 q 229 669 267 669 q 165 697 192 669 q 138 761 138 724 z "},"¢":{"ha":625,"x_min":57,"x_max":597,"o":"m 344 -164 l 244 -164 l 288 -8 q 115 120 174 24 q 57 343 57 217 q 135 591 57 490 q 356 704 213 692 l 369 850 l 472 850 l 431 701 q 588 635 519 688 l 526 554 q 452 602 483 589 q 369 615 421 615 q 230 533 279 615 q 181 356 181 451 q 199 231 181 292 q 265 124 218 171 q 376 76 311 76 q 463 90 428 76 q 544 138 497 104 l 597 49 q 379 -19 497 -19 l 358 -19 l 344 -164 z "},"£":{"ha":807,"x_min":78,"x_max":743,"o":"m 743 0 l 78 0 l 78 96 l 207 96 l 207 499 l 101 499 l 101 593 l 207 593 l 207 757 q 283 954 207 883 q 485 1025 358 1025 q 624 989 560 1025 q 728 889 688 953 l 624 831 q 483 929 574 929 q 375 881 413 929 q 338 760 338 833 l 338 593 l 517 593 l 517 499 l 338 499 l 338 96 l 743 96 l 743 0 z "},"¤":{"ha":744,"x_min":65,"x_max":674,"o":"m 593 303 l 674 225 q 606 158 650 203 q 531 232 554 206 q 369 174 461 174 q 207 232 281 174 q 184 209 199 224 q 157 182 169 194 q 133 158 144 169 l 65 226 l 143 304 q 100 461 100 376 q 144 618 100 544 l 65 697 q 133 765 100 731 l 208 689 q 369 747 281 747 q 529 690 460 747 l 606 765 l 674 697 l 593 618 q 639 461 639 543 q 593 303 639 378 m 369 258 q 489 315 439 258 q 539 461 539 372 q 490 604 539 546 q 369 663 442 663 q 249 604 297 663 q 201 461 201 546 q 251 316 201 374 q 369 258 301 258 z "},"¥":{"ha":697,"x_min":44,"x_max":639,"o":"m 401 0 l 289 0 l 289 226 l 86 226 l 86 293 l 289 293 l 289 342 l 264 376 l 86 376 l 86 442 l 218 442 l 44 689 l 171 689 l 358 426 l 533 689 l 639 689 l 471 442 l 607 442 l 607 376 l 426 376 l 401 342 l 401 293 l 607 293 l 607 226 l 401 226 l 401 0 z "},"¦":{"ha":331,"x_min":117,"x_max":211,"o":"m 211 546 l 117 546 l 117 1031 l 211 1031 l 211 546 m 211 -160 l 117 -160 l 117 324 l 211 324 l 211 -160 z "},"§":{"ha":690,"x_min":74,"x_max":635,"o":"m 99 -60 l 182 6 q 226 -48 208 -29 q 277 -86 244 -67 q 343 -106 310 -106 q 422 -76 390 -106 q 453 1 453 -46 q 414 89 453 40 q 319 185 375 138 q 208 281 264 232 q 113 388 151 331 q 74 494 74 444 q 115 608 74 564 q 226 671 157 653 q 170 747 188 715 q 153 828 153 779 q 216 965 153 913 q 367 1017 279 1017 q 581 897 508 1017 l 506 842 q 363 935 443 935 q 293 908 322 935 q 264 843 264 882 q 302 762 264 806 q 395 674 340 718 q 504 584 450 631 q 597 479 558 538 q 635 363 635 421 q 597 250 635 297 q 494 183 558 203 q 568 15 568 100 q 501 -133 568 -78 q 339 -187 435 -187 q 206 -153 269 -187 q 99 -60 143 -118 m 456 471 l 289 613 q 215 585 251 613 q 179 517 179 557 q 194 470 179 497 q 229 420 210 443 q 283 365 249 397 q 337 317 317 333 q 392 271 357 300 q 431 239 426 242 q 497 273 467 244 q 528 336 528 301 q 456 471 528 410 z "},"¨":{"ha":383,"x_min":0,"x_max":383,"o":"m 383 867 q 360 811 383 835 q 304 788 336 788 q 249 811 272 788 q 226 867 226 835 q 249 922 226 899 q 304 946 272 946 q 360 923 338 946 q 383 867 383 900 m 157 867 q 133 811 157 835 q 78 788 110 788 q 23 811 46 788 q 0 867 0 835 q 23 922 0 899 q 78 946 46 946 q 134 923 111 946 q 157 867 157 900 z "},"©":{"ha":882,"x_min":61,"x_max":817,"o":"m 706 614 q 817 347 817 503 q 706 81 817 192 q 439 -31 594 -31 q 172 81 283 -31 q 61 347 61 192 q 172 614 61 503 q 439 725 283 725 q 706 614 594 725 m 667 118 q 763 347 763 214 q 667 576 763 481 q 439 671 572 671 q 210 576 306 671 q 115 347 115 481 q 210 119 115 214 q 439 24 306 24 q 667 118 572 24 m 556 225 l 592 165 q 442 122 515 122 q 292 187 347 122 q 238 349 238 251 q 296 512 238 449 q 453 575 354 575 q 585 529 514 575 l 543 476 q 442 514 499 514 q 353 465 385 514 q 322 356 322 415 q 354 240 322 293 q 446 186 386 186 q 556 225 497 186 z "},"ª":{"ha":438,"x_min":14,"x_max":424,"o":"m 403 631 l 424 569 q 401 560 417 567 q 376 550 386 554 q 353 542 367 546 q 328 539 339 539 q 264 590 281 539 q 140 538 208 538 q 49 572 85 538 q 14 661 14 606 q 258 822 14 819 l 258 860 q 196 939 258 939 q 130 922 165 939 q 72 881 94 904 l 26 950 q 201 1014 103 1014 q 309 974 272 1014 q 346 861 346 933 l 346 649 q 356 617 346 617 l 403 631 m 360 388 l 56 388 l 56 457 l 360 457 l 360 388 m 258 726 l 258 746 q 209 744 229 746 q 162 735 189 742 q 120 710 135 728 q 106 664 106 692 q 124 629 106 642 q 164 617 142 617 q 231 651 204 617 q 258 726 258 686 z "},"«":{"ha":647,"x_min":76,"x_max":571,"o":"m 365 253 l 283 242 l 76 467 l 278 694 l 363 678 l 201 467 l 365 253 m 571 253 l 489 242 l 282 467 l 483 694 l 568 678 l 407 467 l 571 253 z "},"¬":{"ha":886,"x_min":100,"x_max":785,"o":"m 785 124 l 700 124 l 700 388 l 100 388 l 100 471 l 785 471 l 785 124 z "},"­":{"ha":883,"x_min":100,"x_max":783,"o":"m 783 300 l 100 300 l 100 385 l 783 385 l 783 300 z "},"®":{"ha":638,"x_min":46,"x_max":597,"o":"m 321 563 q 126 642 206 563 q 46 838 46 722 q 126 1033 46 953 q 321 1113 206 1113 q 516 1032 435 1113 q 597 838 597 951 q 516 643 597 724 q 321 563 435 563 m 483 675 q 551 838 551 743 q 483 999 551 932 q 321 1067 415 1067 q 159 999 226 1067 q 92 838 92 932 q 159 676 92 743 q 321 608 226 608 q 483 675 415 608 m 476 683 l 393 683 l 303 817 l 278 817 l 278 683 l 208 683 l 208 996 l 331 996 q 439 907 439 996 q 375 828 439 851 l 476 683 m 278 868 l 311 868 q 369 910 369 868 q 321 944 369 944 l 278 944 l 278 868 z "},"¯":{"ha":381,"x_min":-21,"x_max":401,"o":"m 401 828 l -21 828 l -21 917 l 401 917 l 401 828 z "},"°":{"ha":539,"x_min":61,"x_max":478,"o":"m 417 971 q 478 824 478 910 q 417 676 478 738 q 269 615 356 615 q 122 676 183 615 q 61 824 61 738 q 122 971 61 910 q 269 1032 183 1032 q 417 971 356 1032 m 182 735 q 269 699 218 699 q 356 735 321 699 q 390 824 390 772 q 356 912 390 875 q 269 949 321 949 q 183 912 218 949 q 147 824 147 875 q 182 735 147 772 z "},"±":{"ha":878,"x_min":94,"x_max":788,"o":"m 788 364 l 489 364 l 489 135 l 392 135 l 392 364 l 94 364 l 94 461 l 392 461 l 392 689 l 489 689 l 489 461 l 788 461 l 788 364 m 788 -1 l 94 -1 l 94 96 l 788 96 l 788 -1 z "},"²":{"ha":635,"x_min":81,"x_max":563,"o":"m 536 603 l 81 603 l 81 656 q 118 686 94 667 q 202 762 142 706 q 309 870 263 818 q 393 988 356 922 q 431 1104 431 1054 q 401 1179 431 1150 q 321 1208 372 1208 q 235 1190 279 1208 q 169 1153 192 1172 l 146 1135 l 101 1200 q 113 1210 106 1204 q 143 1231 119 1215 q 193 1258 167 1246 q 260 1279 219 1269 q 343 1289 300 1289 q 498 1237 449 1289 q 547 1113 547 1185 q 515 990 547 1054 q 438 876 483 926 q 347 783 392 825 q 269 719 301 742 l 238 697 l 563 697 l 536 603 z "},"³":{"ha":635,"x_min":88,"x_max":547,"o":"m 101 588 l 88 658 q 345 716 254 667 q 436 842 436 765 q 278 943 436 943 l 229 940 l 218 1006 q 410 1143 410 1044 q 313 1208 410 1208 q 222 1188 271 1208 q 138 1139 172 1167 l 93 1203 q 209 1265 140 1240 q 339 1289 278 1289 q 465 1260 413 1289 q 517 1164 517 1231 q 385 1011 517 1063 q 501 961 454 1003 q 547 853 547 919 q 536 788 547 819 q 494 719 525 756 q 416 656 464 683 q 287 610 368 629 q 101 588 206 592 z "},"´":{"ha":390,"x_min":43,"x_max":346,"o":"m 151 793 l 43 793 l 176 1004 l 346 1004 l 151 793 z "},"µ":{"ha":771,"x_min":94,"x_max":765,"o":"m 742 101 l 765 29 q 734 16 756 25 q 699 2 713 7 q 667 -8 686 -3 q 632 -12 647 -12 q 567 14 592 -12 q 535 82 542 40 q 433 11 492 40 q 322 -18 374 -18 q 231 1 276 -18 l 231 -260 l 113 -260 l 113 608 q 108 628 113 610 q 99 667 104 647 q 94 690 94 688 l 226 690 l 226 265 q 230 202 226 229 q 244 146 233 175 q 280 101 256 117 q 342 85 304 85 q 442 112 389 85 q 532 176 494 139 l 532 608 q 528 628 532 610 q 519 667 524 647 q 514 690 514 688 l 646 690 l 646 135 q 652 94 646 107 q 676 82 658 82 q 742 101 693 82 z "},"¶":{"ha":694,"x_min":56,"x_max":632,"o":"m 318 -65 l 318 461 q 132 536 208 461 q 56 722 56 611 q 141 928 56 858 q 365 997 226 997 l 632 997 l 632 922 l 554 922 l 554 14 q 509 -95 554 -50 q 400 -140 464 -140 q 376 -137 393 -140 q 319 -197 356 -175 q 240 -219 283 -219 q 131 -174 176 -219 q 86 -65 86 -129 q 131 44 86 -1 q 240 89 176 89 l 240 14 q 185 -10 208 14 q 161 -65 161 -33 q 185 -121 161 -97 q 240 -144 208 -144 q 295 -121 272 -144 q 318 -65 318 -97 m 479 14 l 479 922 l 394 922 l 394 -65 l 400 -65 q 456 -42 432 -65 q 479 14 479 -18 z "},"·":{"ha":407,"x_min":113,"x_max":296,"o":"m 113 361 q 139 426 113 400 q 204 453 165 453 q 269 426 242 453 q 296 361 296 399 q 269 297 296 324 q 204 269 242 269 q 140 297 167 269 q 113 361 113 324 z "},"¸":{"ha":389,"x_min":44,"x_max":343,"o":"m 44 -267 l 78 -203 q 167 -235 136 -235 q 210 -219 192 -235 q 228 -181 228 -204 q 213 -145 228 -158 q 175 -132 199 -132 l 110 -132 q 96 -126 100 -132 q 92 -114 92 -119 l 92 -107 l 158 13 l 224 13 l 183 -64 l 199 -64 q 299 -92 256 -64 q 343 -176 343 -119 q 163 -306 343 -306 q 44 -267 106 -306 z "},"¹":{"ha":635,"x_min":106,"x_max":549,"o":"m 549 603 l 126 603 l 126 685 l 299 685 l 299 1164 q 215 1140 271 1156 q 131 1115 158 1124 q 106 1183 128 1124 q 340 1275 225 1224 l 410 1275 l 410 685 l 549 685 l 549 603 z "},"º":{"ha":461,"x_min":18,"x_max":443,"o":"m 18 786 q 76 954 18 885 q 231 1024 133 1024 q 386 955 329 1024 q 443 786 443 886 q 386 617 443 686 q 231 549 329 549 q 75 617 132 549 q 18 786 18 686 m 383 388 l 79 388 l 79 457 l 383 457 l 383 388 m 231 621 q 317 672 289 621 q 346 786 346 722 q 317 900 346 849 q 231 951 289 951 q 142 901 171 951 q 114 786 114 850 q 144 674 114 726 q 231 621 175 621 z "},"»":{"ha":647,"x_min":75,"x_max":571,"o":"m 158 238 l 75 249 l 240 463 l 79 674 l 164 690 l 364 463 l 158 238 m 365 238 l 282 249 l 447 463 l 286 674 l 371 690 l 571 463 l 365 238 z "},"¼":{"ha":1519,"x_min":106,"x_max":1365,"o":"m 585 -31 l 499 -31 q 926 1046 785 686 l 1014 1046 q 585 -31 871 686 m 549 344 l 126 344 l 126 426 l 299 426 l 299 906 l 131 857 q 106 925 128 865 q 340 1017 225 965 l 410 1017 l 410 426 l 549 426 l 549 344 m 1261 0 l 1150 0 l 1150 153 l 832 153 l 832 208 q 1150 671 939 363 l 1261 671 l 1261 235 l 1365 235 q 1342 153 1360 215 l 1261 153 l 1261 0 m 1150 235 l 1150 401 q 1152 481 1150 425 q 1154 553 1154 536 q 1111 476 1138 519 q 1063 399 1085 432 q 1003 313 1040 367 q 950 235 967 260 l 1150 235 z "},"½":{"ha":1546,"x_min":106,"x_max":1419,"o":"m 549 344 l 126 344 l 126 426 l 299 426 l 299 906 l 131 857 q 106 925 128 865 q 340 1017 225 965 l 410 1017 l 410 426 l 549 426 l 549 344 m 585 -31 l 499 -31 q 926 1046 785 686 l 1014 1046 q 585 -31 871 686 m 1393 0 l 938 0 l 938 53 q 965 75 939 54 q 1288 497 1288 350 q 1258 571 1288 543 q 1178 599 1228 599 q 1004 529 1088 599 l 960 596 q 1203 686 1076 686 q 1357 635 1306 686 q 1408 507 1408 583 q 1369 373 1408 443 q 1272 244 1331 303 q 1175 153 1213 185 q 1107 100 1138 121 l 1419 100 l 1393 0 z "},"¾":{"ha":1494,"x_min":88,"x_max":1329,"o":"m 101 328 l 88 399 q 344 456 253 407 q 435 582 435 506 q 276 683 435 683 l 229 681 l 218 746 q 406 885 406 783 q 313 949 406 949 q 220 928 269 949 q 138 879 171 907 q 117 910 132 888 q 93 943 101 932 q 208 1005 140 981 q 339 1029 276 1029 q 465 1000 413 1029 q 517 904 517 971 q 383 751 517 803 q 501 701 454 743 q 547 593 547 660 q 536 528 547 560 q 494 460 525 496 q 416 397 464 424 q 287 351 368 369 q 101 328 206 332 m 547 -31 l 461 -31 q 699 566 544 178 q 889 1046 853 954 l 975 1046 q 785 566 939 954 q 547 -31 631 178 m 1225 0 l 1114 0 l 1114 153 l 796 153 l 796 208 l 1113 671 l 1225 671 l 1225 235 l 1329 235 q 1306 153 1310 172 l 1225 153 l 1225 0 m 1114 235 l 1114 401 q 1116 481 1114 425 q 1118 553 1118 536 q 913 235 1075 468 l 1114 235 z "},"¿":{"ha":599,"x_min":67,"x_max":533,"o":"m 496 -51 l 533 -131 q 350 -175 471 -175 q 151 -113 236 -175 q 67 60 67 -51 q 124 216 67 144 q 263 314 181 288 q 291 328 286 322 q 296 357 296 335 l 296 528 l 386 528 l 386 257 q 247 194 304 243 q 189 68 189 146 q 240 -47 189 -4 q 363 -90 290 -90 q 496 -51 449 -90 m 254 756 q 281 821 254 794 q 346 847 307 847 q 410 820 383 847 q 438 756 438 793 q 410 691 438 718 q 346 664 383 664 q 281 691 308 664 q 254 756 254 718 z "},"À":{"ha":876,"x_min":25,"x_max":853,"o":"m 853 0 l 710 0 l 596 315 l 258 315 l 142 0 l 25 0 l 376 931 l 503 931 l 853 0 m 561 410 l 428 771 l 294 410 l 561 410 m 518 1001 l 410 1001 l 215 1213 l 386 1213 l 518 1001 z "},"Á":{"ha":876,"x_min":32,"x_max":860,"o":"m 860 0 l 717 0 l 603 315 l 265 315 l 149 0 l 32 0 l 383 931 l 510 931 l 860 0 m 568 410 l 435 771 l 301 410 l 568 410 m 492 994 l 383 994 l 517 1206 l 686 1206 l 492 994 z "},"Â":{"ha":876,"x_min":25,"x_max":853,"o":"m 853 0 l 710 0 l 596 315 l 258 315 l 142 0 l 25 0 l 376 931 l 503 931 l 853 0 m 561 410 l 428 771 l 294 410 l 561 410 m 642 967 l 546 967 l 436 1081 l 331 968 l 238 968 l 379 1182 l 494 1182 l 642 967 z "},"Ã":{"ha":876,"x_min":25,"x_max":853,"o":"m 604 1111 l 671 1111 q 634 1016 665 1058 q 553 974 603 974 q 447 1001 514 974 q 344 1028 381 1028 q 316 1017 329 1028 q 299 990 303 1006 l 229 990 q 272 1088 238 1046 q 360 1129 307 1129 q 465 1102 400 1129 q 556 1075 531 1075 q 604 1111 592 1075 m 853 0 l 710 0 l 596 315 l 258 315 l 142 0 l 25 0 l 376 931 l 503 931 l 853 0 m 561 410 l 428 771 l 294 410 l 561 410 z "},"Ä":{"ha":876,"x_min":25,"x_max":853,"o":"m 853 0 l 710 0 l 596 315 l 258 315 l 142 0 l 25 0 l 376 931 l 503 931 l 853 0 m 561 410 l 428 771 l 294 410 l 561 410 m 635 1075 q 611 1019 635 1043 q 556 996 588 996 q 501 1019 524 996 q 478 1075 478 1043 q 501 1131 478 1107 q 556 1154 524 1154 q 612 1131 589 1154 q 635 1075 635 1108 m 408 1075 q 385 1019 408 1043 q 329 996 361 996 q 274 1019 297 996 q 251 1075 251 1043 q 274 1131 251 1107 q 329 1154 297 1154 q 385 1131 363 1154 q 408 1075 408 1108 z "},"Å":{"ha":876,"x_min":25,"x_max":853,"o":"m 853 0 l 710 0 l 596 314 l 258 314 l 142 0 l 25 0 l 365 903 q 317 953 335 921 q 299 1021 299 985 q 339 1118 299 1078 q 436 1158 379 1158 q 532 1118 493 1158 q 571 1021 571 1078 q 511 907 571 943 l 853 0 m 501 1021 q 481 1067 501 1047 q 435 1088 461 1088 q 388 1067 408 1088 q 368 1021 368 1047 q 388 974 368 994 q 435 954 408 954 q 482 974 463 954 q 501 1021 501 993 m 561 408 l 428 769 l 294 408 l 561 408 z "},"Æ":{"ha":1103,"x_min":17,"x_max":1038,"o":"m 1038 0 l 542 0 l 542 344 l 293 344 l 135 0 l 17 0 l 435 921 l 415 1011 l 1038 1011 l 1038 917 l 669 917 l 669 569 l 994 569 l 994 469 l 669 469 l 669 99 l 1038 99 l 1038 0 m 542 444 l 542 890 l 338 444 l 542 444 z "},"Ç":{"ha":867,"x_min":64,"x_max":843,"o":"m 368 -267 l 403 -203 q 492 -235 458 -235 q 534 -219 515 -235 q 553 -181 553 -204 q 538 -145 553 -158 q 500 -132 524 -132 l 433 -132 q 413 -115 413 -132 q 415 -107 413 -112 l 468 -12 q 171 158 278 11 q 64 508 64 304 q 190 879 64 733 q 538 1025 317 1025 q 706 997 619 1025 q 840 915 793 968 l 768 835 q 663 903 729 878 q 535 928 596 928 q 383 891 449 928 q 281 791 318 854 q 224 655 243 728 q 206 500 206 582 q 224 344 206 417 q 281 214 243 272 q 385 122 319 156 q 538 88 451 88 q 669 111 600 88 q 783 174 738 135 l 843 81 q 700 9 788 35 q 532 -17 613 -17 l 507 -64 l 524 -64 q 624 -92 581 -64 q 668 -176 668 -119 q 488 -306 668 -306 q 368 -267 429 -306 z "},"È":{"ha":763,"x_min":100,"x_max":707,"o":"m 707 0 l 119 0 l 119 838 q 115 860 119 839 q 105 903 110 881 q 100 928 100 925 l 707 928 l 707 833 l 250 833 l 250 522 l 604 522 l 604 425 l 250 425 l 250 96 l 707 96 l 707 0 m 482 1001 l 374 1001 l 179 1213 l 350 1213 l 482 1001 z "},"É":{"ha":763,"x_min":100,"x_max":707,"o":"m 707 0 l 119 0 l 119 838 q 115 860 119 839 q 105 903 110 881 q 100 928 100 925 l 707 928 l 707 833 l 250 833 l 250 522 l 604 522 l 604 425 l 250 425 l 250 96 l 707 96 l 707 0 m 468 996 l 360 996 l 493 1207 l 663 1207 l 468 996 z "},"Ê":{"ha":763,"x_min":100,"x_max":707,"o":"m 707 0 l 119 0 l 119 839 q 115 861 119 840 q 105 904 110 882 q 100 929 100 926 l 707 929 l 707 835 l 250 835 l 250 524 l 604 524 l 604 426 l 250 426 l 250 96 l 707 96 l 707 0 m 619 967 l 524 967 l 414 1081 l 308 968 l 215 968 l 357 1182 l 472 1182 l 619 967 z "},"Ë":{"ha":763,"x_min":97,"x_max":704,"o":"m 704 0 l 117 0 l 117 839 q 112 861 117 840 q 102 904 107 882 q 97 929 97 926 l 704 929 l 704 835 l 247 835 l 247 524 l 601 524 l 601 426 l 247 426 l 247 96 l 704 96 l 704 0 m 614 1081 q 590 1025 614 1049 q 535 1001 567 1001 q 480 1025 503 1001 q 457 1081 457 1049 q 480 1136 457 1113 q 535 1160 503 1160 q 591 1137 568 1160 q 614 1081 614 1114 m 388 1081 q 364 1025 388 1049 q 308 1001 340 1001 q 253 1025 276 1001 q 231 1081 231 1049 q 253 1136 231 1113 q 308 1160 276 1160 q 365 1137 342 1160 q 388 1081 388 1114 z "},"Ì":{"ha":372,"x_min":-51,"x_max":251,"o":"m 251 0 l 119 0 l 119 836 q 115 858 119 838 q 105 902 110 879 q 100 928 100 925 l 251 928 l 251 0 m 251 999 l 143 999 l -51 1210 l 119 1210 l 251 999 z "},"Í":{"ha":375,"x_min":97,"x_max":400,"o":"m 250 0 l 119 0 l 119 838 l 99 929 l 250 929 l 250 0 m 206 994 l 97 994 l 231 1206 l 400 1206 l 206 994 z "},"Î":{"ha":375,"x_min":-19,"x_max":385,"o":"m 251 0 l 119 0 l 119 836 l 99 928 l 251 928 l 251 0 m 385 967 l 289 967 l 179 1081 l 74 968 l -19 968 l 122 1182 l 238 1182 l 385 967 z "},"Ï":{"ha":375,"x_min":-8,"x_max":375,"o":"m 250 0 l 118 0 l 118 836 q 113 858 118 838 q 103 902 108 879 q 99 928 99 925 l 250 928 l 250 0 m 375 1081 q 351 1025 375 1049 q 296 1001 328 1001 q 241 1025 264 1001 q 218 1081 218 1049 q 241 1136 218 1113 q 296 1160 264 1160 q 352 1137 329 1160 q 375 1081 375 1114 m 149 1081 q 125 1025 149 1049 q 69 1001 101 1001 q 15 1025 38 1001 q -8 1081 -8 1049 q 15 1136 -8 1113 q 69 1160 38 1160 q 126 1137 103 1160 q 149 1081 149 1114 z "},"Ð":{"ha":992,"x_min":11,"x_max":911,"o":"m 453 0 l 124 0 l 124 460 l 11 460 l 11 549 l 124 549 l 124 919 q 119 942 124 921 q 109 985 114 963 q 104 1011 104 1008 l 364 1011 q 911 503 911 1011 q 795 138 911 275 q 453 0 679 0 m 253 96 l 436 96 q 695 208 614 96 q 776 506 776 321 q 672 818 776 721 q 354 915 567 915 l 253 915 l 253 549 l 468 549 l 468 460 l 253 460 l 253 96 z "},"Ñ":{"ha":992,"x_min":101,"x_max":871,"o":"m 871 -8 l 789 -8 l 228 774 l 228 0 l 121 0 l 121 836 q 116 858 121 838 q 106 902 111 879 q 101 928 101 925 l 274 928 l 765 250 l 765 928 l 871 928 l 871 -8 m 668 1110 l 733 1110 q 697 1015 728 1057 q 615 972 665 972 q 509 999 575 972 q 408 1026 443 1026 q 361 989 378 1026 l 293 989 q 335 1086 300 1044 q 424 1128 369 1128 q 528 1101 463 1128 q 618 1074 593 1074 q 668 1110 656 1074 z "},"Ò":{"ha":1024,"x_min":65,"x_max":960,"o":"m 513 -18 q 192 123 318 -18 q 65 461 65 264 q 191 801 65 660 q 513 942 317 942 q 834 801 708 942 q 960 461 960 660 q 834 123 960 264 q 513 -18 708 -18 m 513 76 q 741 193 658 76 q 824 463 824 310 q 741 731 824 614 q 513 847 658 847 q 285 731 368 847 q 201 463 201 614 q 235 281 201 367 q 341 135 268 194 q 513 76 414 76 m 571 1000 l 463 1000 l 268 1211 l 439 1211 l 571 1000 z "},"Ó":{"ha":1024,"x_min":65,"x_max":960,"o":"m 65 463 q 191 802 65 661 q 513 943 317 943 q 834 802 708 943 q 960 463 960 661 q 834 124 960 265 q 513 -17 708 -17 q 191 124 317 -17 q 65 463 65 265 m 513 78 q 741 194 658 78 q 824 463 824 311 q 741 732 824 615 q 513 849 658 849 q 341 790 414 849 q 235 644 268 731 q 201 463 201 558 q 285 194 201 311 q 513 78 368 78 m 538 997 l 429 997 l 563 1208 l 732 1208 l 538 997 z "},"Ô":{"ha":1024,"x_min":65,"x_max":960,"o":"m 513 -18 q 192 123 318 -18 q 65 461 65 264 q 191 801 65 660 q 513 942 317 942 q 834 801 708 942 q 960 461 960 660 q 834 123 960 264 q 513 -18 708 -18 m 513 76 q 741 193 658 76 q 824 463 824 310 q 741 731 824 614 q 513 847 658 847 q 285 731 368 847 q 201 463 201 614 q 235 281 201 367 q 341 135 268 194 q 513 76 414 76 m 711 964 l 615 964 l 506 1078 l 400 965 l 307 965 l 449 1179 l 564 1179 l 711 964 z "},"Õ":{"ha":1022,"x_min":64,"x_max":958,"o":"m 64 463 q 190 802 64 661 q 511 943 315 943 q 833 802 707 943 q 958 463 958 661 q 833 124 958 265 q 511 -17 707 -17 q 190 124 315 -17 q 64 463 64 265 m 511 78 q 740 194 657 78 q 822 463 822 311 q 740 732 822 615 q 511 849 657 849 q 340 790 413 849 q 233 644 267 731 q 200 463 200 558 q 283 194 200 311 q 511 78 367 78 m 675 1113 l 740 1113 q 703 1017 735 1060 q 622 975 672 975 q 516 1002 582 975 q 415 1029 450 1029 q 368 992 385 1029 l 300 992 q 342 1089 307 1047 q 431 1131 376 1131 q 535 1103 469 1131 q 625 1076 600 1076 q 675 1113 663 1076 z "},"Ö":{"ha":1024,"x_min":65,"x_max":960,"o":"m 65 463 q 191 802 65 661 q 513 943 317 943 q 834 802 708 943 q 960 463 960 661 q 834 124 960 265 q 513 -17 708 -17 q 191 124 317 -17 q 65 463 65 265 m 513 78 q 741 194 658 78 q 824 463 824 311 q 741 732 824 615 q 513 849 658 849 q 341 790 414 849 q 235 644 268 731 q 201 463 201 558 q 285 194 201 311 q 513 78 368 78 m 701 1075 q 678 1019 701 1043 q 622 996 654 996 q 567 1019 590 996 q 544 1075 544 1043 q 567 1131 544 1107 q 622 1154 590 1154 q 678 1131 656 1154 q 701 1075 701 1108 m 475 1075 q 451 1019 475 1043 q 396 996 428 996 q 341 1019 364 996 q 318 1075 318 1043 q 341 1131 318 1107 q 396 1154 364 1154 q 452 1131 429 1154 q 475 1075 475 1108 z "},"×":{"ha":742,"x_min":99,"x_max":643,"o":"m 643 131 l 582 69 l 371 281 l 160 69 l 99 131 l 311 342 l 99 553 l 160 614 l 371 403 l 582 614 l 643 553 l 431 342 l 643 131 z "},"Ø":{"ha":1022,"x_min":64,"x_max":958,"o":"m 175 -79 l 103 -33 l 197 108 q 64 504 64 251 q 181 875 64 728 q 515 1022 297 1022 q 749 958 649 1022 l 818 1065 l 893 1022 l 817 906 q 958 501 958 763 q 909 243 958 358 q 756 55 860 128 q 507 -18 651 -18 q 263 54 367 -18 l 175 -79 m 688 867 q 511 928 617 928 q 365 891 428 928 q 267 792 301 854 q 217 658 233 729 q 200 508 200 588 q 267 219 200 331 q 688 867 496 568 m 749 799 q 322 149 606 582 q 514 76 399 76 q 659 113 597 76 q 756 212 721 150 q 806 344 790 274 q 822 493 822 414 q 749 799 822 683 z "},"Ù":{"ha":982,"x_min":99,"x_max":861,"o":"m 754 357 l 754 928 l 861 928 l 861 357 q 763 81 861 181 q 488 -18 665 -18 q 215 73 311 -18 q 119 338 119 164 l 119 838 q 115 860 119 839 q 104 903 110 881 q 99 928 99 925 l 251 928 l 251 338 q 312 147 251 215 q 493 78 372 78 q 686 154 618 78 q 754 357 754 231 m 561 1001 l 453 1001 l 258 1213 l 429 1213 l 561 1001 z "},"Ú":{"ha":982,"x_min":99,"x_max":861,"o":"m 754 358 l 754 929 l 861 929 l 861 358 q 763 83 861 182 q 488 -17 665 -17 q 215 74 311 -17 q 119 339 119 165 l 119 839 q 115 861 119 840 q 104 904 110 882 q 99 929 99 926 l 251 929 l 251 339 q 312 148 251 217 q 493 79 372 79 q 686 156 618 79 q 754 358 754 232 m 544 996 l 436 996 l 569 1207 l 739 1207 l 544 996 z "},"Û":{"ha":982,"x_min":99,"x_max":861,"o":"m 754 358 l 754 929 l 861 929 l 861 358 q 763 83 861 182 q 488 -17 665 -17 q 215 74 311 -17 q 119 339 119 165 l 119 839 q 115 861 119 840 q 104 904 110 882 q 99 929 99 926 l 251 929 l 251 339 q 312 148 251 217 q 493 79 372 79 q 686 156 618 79 q 754 358 754 232 m 700 967 l 604 967 l 494 1081 l 389 968 l 296 968 l 438 1182 l 553 1182 l 700 967 z "},"Ü":{"ha":982,"x_min":99,"x_max":861,"o":"m 754 358 l 754 929 l 861 929 l 861 358 q 763 83 861 182 q 488 -17 665 -17 q 215 74 311 -17 q 119 339 119 164 l 119 839 q 115 861 119 840 q 104 904 110 882 q 99 929 99 926 l 251 929 l 251 339 q 312 148 251 217 q 493 79 372 79 q 686 156 618 79 q 754 358 754 232 m 697 1075 q 674 1019 697 1043 q 618 996 650 996 q 563 1019 586 996 q 540 1075 540 1043 q 563 1131 540 1107 q 618 1154 586 1154 q 674 1131 651 1154 q 697 1075 697 1108 m 471 1075 q 447 1019 471 1043 q 392 996 424 996 q 337 1019 360 996 q 314 1075 314 1043 q 337 1131 314 1107 q 392 1154 360 1154 q 448 1131 425 1154 q 471 1075 471 1108 z "},"Ý":{"ha":811,"x_min":44,"x_max":768,"o":"m 476 0 l 344 0 l 344 417 l 44 929 l 193 929 l 428 535 l 646 929 l 768 929 l 476 417 l 476 0 m 478 996 l 369 996 l 503 1207 l 672 1207 l 478 996 z "},"Þ":{"ha":799,"x_min":103,"x_max":740,"o":"m 253 349 l 401 349 q 549 406 494 349 q 604 556 604 463 q 552 701 604 649 q 403 753 500 753 l 253 753 l 253 349 m 253 1 l 124 1 l 124 919 l 103 1011 l 254 1011 l 254 849 l 392 849 q 646 778 551 849 q 740 556 740 708 q 642 331 740 407 q 393 254 543 254 l 253 254 l 253 1 z "},"ß":{"ha":767,"x_min":39,"x_max":743,"o":"m 328 11 l 367 92 q 463 74 433 74 q 573 118 525 74 q 621 235 621 163 q 592 327 621 288 q 524 392 564 367 q 443 439 483 417 q 374 490 403 461 q 346 556 346 519 q 376 615 346 586 q 441 664 406 643 q 506 723 476 685 q 536 808 536 761 q 425 932 536 932 q 340 906 375 932 q 288 835 304 879 q 264 749 271 792 q 257 658 257 706 l 257 0 l 142 0 l 142 603 l 39 603 l 39 679 q 124 701 101 679 q 160 789 146 724 q 425 1029 214 1029 q 597 973 535 1029 q 658 810 658 917 q 654 758 658 782 q 639 716 650 735 q 620 685 628 697 q 592 657 613 672 q 561 635 571 642 q 524 613 551 629 q 488 592 497 597 q 447 561 447 568 q 510 518 447 549 q 579 484 554 497 q 640 446 604 471 q 695 397 676 421 q 728 335 714 372 q 743 256 743 299 q 669 58 743 132 q 474 -17 596 -17 q 328 11 400 -17 z "},"à":{"ha":682,"x_min":61,"x_max":692,"o":"m 668 101 l 692 29 q 660 16 682 25 q 626 2 639 7 q 593 -8 613 -3 q 558 -12 574 -12 q 492 14 518 -12 q 460 82 467 40 q 251 -15 367 -15 q 115 34 168 -15 q 61 167 61 83 q 457 404 61 401 l 457 478 q 342 617 457 617 q 232 594 288 617 q 143 535 176 572 l 86 617 q 351 707 199 707 q 516 648 460 707 q 572 479 572 589 l 572 135 q 578 94 572 107 q 603 82 585 82 q 668 101 619 82 m 457 269 l 457 314 q 369 310 406 314 q 283 294 332 307 q 206 251 233 282 q 179 171 179 219 q 209 104 179 126 q 289 82 239 82 q 408 140 360 82 q 457 269 457 197 m 408 800 l 300 800 l 106 1011 l 276 1011 l 408 800 z "},"á":{"ha":686,"x_min":61,"x_max":692,"o":"m 393 801 l 285 801 l 418 1013 l 588 1013 l 393 801 m 668 101 l 692 29 q 660 16 682 25 q 626 2 639 7 q 593 -8 613 -3 q 558 -12 574 -12 q 492 14 518 -12 q 460 82 467 40 q 251 -15 367 -15 q 115 34 168 -15 q 61 167 61 83 q 457 404 61 401 l 457 478 q 342 617 457 617 q 232 594 288 617 q 143 535 176 572 l 86 617 q 351 707 199 707 q 516 648 460 707 q 572 479 572 589 l 572 135 q 578 94 572 107 q 603 82 585 82 q 668 101 619 82 m 457 269 l 457 314 q 369 310 406 314 q 283 294 332 307 q 206 251 233 282 q 179 171 179 219 q 209 104 179 126 q 289 82 239 82 q 408 140 360 82 q 457 269 457 197 z "},"â":{"ha":686,"x_min":61,"x_max":692,"o":"m 542 797 l 446 797 l 336 911 l 231 799 l 138 799 l 279 1013 l 394 1013 l 542 797 m 668 101 l 692 29 q 660 16 682 25 q 626 2 639 7 q 593 -8 613 -3 q 558 -12 574 -12 q 492 14 518 -12 q 460 82 467 40 q 251 -15 367 -15 q 115 34 168 -15 q 61 167 61 83 q 457 404 61 401 l 457 478 q 342 617 457 617 q 232 594 288 617 q 143 535 176 572 l 86 617 q 351 707 199 707 q 516 648 460 707 q 572 479 572 589 l 572 135 q 578 94 572 107 q 603 82 585 82 q 668 101 619 82 m 457 269 l 457 314 q 369 310 406 314 q 283 294 332 307 q 206 251 233 282 q 179 171 179 219 q 209 104 179 126 q 289 82 239 82 q 408 140 360 82 q 457 269 457 197 z "},"ã":{"ha":686,"x_min":61,"x_max":692,"o":"m 507 933 l 572 933 q 535 838 567 881 q 454 796 504 796 q 348 823 414 796 q 247 850 282 850 q 200 813 217 850 l 132 813 q 174 910 139 868 q 263 951 208 951 q 367 924 301 951 q 457 897 432 897 q 507 933 494 897 m 668 101 l 692 29 q 660 16 682 25 q 626 2 639 7 q 593 -8 613 -3 q 558 -12 574 -12 q 492 14 518 -12 q 460 82 467 40 q 251 -15 367 -15 q 115 34 168 -15 q 61 167 61 83 q 457 404 61 401 l 457 478 q 342 617 457 617 q 232 594 288 617 q 143 535 176 572 l 86 617 q 351 707 199 707 q 516 648 460 707 q 572 479 572 589 l 572 135 q 578 94 572 107 q 603 82 585 82 q 668 101 619 82 m 457 269 l 457 314 q 369 310 406 314 q 283 294 332 307 q 206 251 233 282 q 179 171 179 219 q 209 104 179 126 q 289 82 239 82 q 408 140 360 82 q 457 269 457 197 z "},"ä":{"ha":686,"x_min":61,"x_max":692,"o":"m 540 867 q 517 811 540 835 q 461 788 493 788 q 406 811 429 788 q 383 867 383 835 q 406 922 383 899 q 461 946 429 946 q 517 923 494 946 q 540 867 540 900 m 314 867 q 290 811 314 835 q 235 788 267 788 q 180 811 203 788 q 157 867 157 835 q 180 922 157 899 q 235 946 203 946 q 291 923 268 946 q 314 867 314 900 m 668 101 l 692 29 q 660 16 682 25 q 626 2 639 7 q 593 -8 613 -3 q 558 -12 574 -12 q 492 14 518 -12 q 460 82 467 40 q 251 -15 367 -15 q 115 34 168 -15 q 61 167 61 83 q 457 404 61 401 l 457 478 q 342 617 457 617 q 232 594 288 617 q 143 535 176 572 l 86 617 q 351 707 199 707 q 516 648 460 707 q 572 479 572 589 l 572 135 q 578 94 572 107 q 603 82 585 82 q 668 101 619 82 m 457 269 l 457 314 q 369 310 406 314 q 283 294 332 307 q 206 251 233 282 q 179 171 179 219 q 209 104 179 126 q 289 82 239 82 q 408 140 360 82 q 457 269 457 197 z "},"å":{"ha":700,"x_min":61,"x_max":692,"o":"m 489 903 q 448 806 489 847 q 351 765 407 765 q 255 806 296 765 q 214 903 214 847 q 255 1001 214 960 q 351 1042 296 1042 q 449 1001 408 1042 q 489 903 489 960 m 399 856 q 418 903 418 875 q 399 950 418 931 q 351 969 379 969 q 304 950 324 969 q 285 903 285 931 q 304 856 285 875 q 351 836 324 836 q 399 856 379 836 m 668 101 l 692 29 q 660 16 682 25 q 626 2 639 7 q 593 -8 613 -3 q 558 -12 574 -12 q 492 14 518 -12 q 460 82 467 40 q 251 -15 367 -15 q 115 34 168 -15 q 61 167 61 83 q 457 404 61 401 l 457 478 q 342 617 457 617 q 232 594 288 617 q 143 535 176 572 l 86 617 q 351 707 199 707 q 516 648 460 707 q 572 479 572 589 l 572 135 q 578 94 572 107 q 603 82 585 82 q 668 101 619 82 m 457 269 l 457 314 q 369 310 406 314 q 283 294 332 307 q 206 251 233 282 q 179 171 179 219 q 209 104 179 126 q 289 82 239 82 q 408 140 360 82 q 457 269 457 197 z "},"æ":{"ha":1042,"x_min":57,"x_max":1000,"o":"m 940 142 l 996 57 q 765 -18 897 -18 q 499 118 600 -18 q 392 15 450 47 q 249 -17 335 -17 q 109 33 161 -17 q 57 169 57 83 q 83 276 57 231 q 148 349 108 322 q 242 393 188 376 q 348 415 297 410 q 454 421 399 421 q 456 454 456 432 q 429 569 456 522 q 339 617 403 617 q 229 594 285 617 q 139 535 174 572 l 82 615 q 199 682 118 657 q 344 707 281 707 q 536 617 481 707 q 629 683 574 658 q 740 707 685 707 q 933 638 867 707 q 1000 440 1000 568 q 982 362 1000 389 q 915 335 964 335 l 563 335 l 563 311 q 618 151 563 224 q 760 79 674 79 q 857 96 806 79 q 940 142 908 113 m 571 421 l 854 421 q 880 427 872 421 q 888 451 888 433 q 856 572 888 524 q 754 619 824 619 q 630 561 678 619 q 571 421 582 503 m 453 283 l 453 332 l 433 332 q 322 321 375 332 q 222 273 268 310 q 176 178 176 236 q 207 107 176 132 q 285 82 238 82 q 408 142 363 82 q 453 283 453 203 z "},"ç":{"ha":625,"x_min":61,"x_max":601,"o":"m 210 -267 l 243 -203 q 332 -235 301 -235 q 375 -219 357 -235 q 393 -181 393 -204 q 378 -145 393 -158 q 340 -132 364 -132 l 275 -132 q 253 -115 253 -132 q 256 -107 253 -112 l 310 -11 q 129 117 197 14 q 61 344 61 221 q 149 604 61 501 q 392 707 238 707 q 592 636 499 707 l 529 556 q 456 603 489 590 q 374 617 424 617 q 234 535 283 617 q 185 357 185 453 q 203 233 185 293 q 269 125 222 172 q 381 78 315 78 q 465 92 431 78 q 549 139 500 106 l 601 51 q 490 -3 536 13 q 372 -18 443 -18 l 347 -64 l 364 -64 q 465 -92 421 -64 q 508 -176 508 -119 q 332 -306 508 -306 q 210 -267 271 -306 z "},"è":{"ha":686,"x_min":61,"x_max":629,"o":"m 564 143 l 615 60 q 382 -18 519 -18 q 147 83 232 -18 q 61 338 61 183 q 92 514 61 432 q 194 651 124 596 q 361 707 264 707 q 556 635 482 707 q 629 444 629 564 q 558 356 629 356 l 183 356 l 183 342 q 237 160 183 242 q 385 79 290 79 q 481 97 431 79 q 564 143 531 114 m 192 442 l 482 442 q 501 448 497 442 q 506 471 506 454 q 469 576 506 533 q 372 619 433 619 q 255 565 306 619 q 192 442 204 511 m 429 800 l 321 800 l 126 1011 l 297 1011 l 429 800 z "},"é":{"ha":686,"x_min":61,"x_max":629,"o":"m 413 800 l 304 800 l 438 1011 l 607 1011 l 413 800 m 564 143 l 615 60 q 382 -18 519 -18 q 147 83 232 -18 q 61 338 61 183 q 92 514 61 432 q 194 651 124 596 q 361 707 264 707 q 556 635 482 707 q 629 444 629 564 q 558 356 629 356 l 183 356 l 183 342 q 237 160 183 242 q 385 79 290 79 q 481 97 431 79 q 564 143 531 114 m 192 442 l 482 442 q 501 448 497 442 q 506 471 506 454 q 469 576 506 533 q 372 619 433 619 q 255 565 306 619 q 192 442 204 511 z "},"ê":{"ha":686,"x_min":61,"x_max":629,"o":"m 564 796 l 468 796 l 358 910 l 253 797 l 160 797 l 301 1011 l 417 1011 l 564 796 m 564 143 l 615 60 q 382 -18 519 -18 q 147 83 232 -18 q 61 338 61 183 q 92 514 61 432 q 194 651 124 596 q 361 707 264 707 q 556 635 482 707 q 629 444 629 564 q 558 356 629 356 l 183 356 l 183 342 q 237 160 183 242 q 385 79 290 79 q 481 97 431 79 q 564 143 531 114 m 192 442 l 482 442 q 501 448 497 442 q 506 471 506 454 q 469 576 506 533 q 372 619 433 619 q 255 565 306 619 q 192 442 204 511 z "},"ë":{"ha":686,"x_min":61,"x_max":629,"o":"m 561 867 q 538 811 561 835 q 482 788 514 788 q 427 811 450 788 q 404 867 404 835 q 427 922 404 899 q 482 946 450 946 q 538 923 515 946 q 561 867 561 900 m 335 867 q 311 811 335 835 q 256 788 288 788 q 201 811 224 788 q 178 867 178 835 q 201 922 178 899 q 256 946 224 946 q 312 923 289 946 q 335 867 335 900 m 564 143 l 615 60 q 382 -18 519 -18 q 147 83 232 -18 q 61 338 61 183 q 92 514 61 432 q 194 651 124 596 q 361 707 264 707 q 556 635 482 707 q 629 444 629 564 q 558 356 629 356 l 183 356 l 183 342 q 237 160 183 242 q 385 79 290 79 q 481 97 431 79 q 564 143 531 114 m 192 442 l 482 442 q 501 448 497 442 q 506 471 506 454 q 469 576 506 533 q 372 619 433 619 q 255 565 306 619 q 192 442 204 511 z "},"ì":{"ha":347,"x_min":-67,"x_max":236,"o":"m 232 0 l 117 0 l 117 608 q 113 628 117 610 q 104 667 108 647 q 100 690 100 688 l 232 690 l 232 0 m 236 800 l 128 800 l -67 1011 l 104 1011 l 236 800 z "},"í":{"ha":347,"x_min":94,"x_max":397,"o":"m 232 0 l 117 0 l 117 608 q 113 628 117 610 q 104 667 108 647 q 100 690 100 688 l 232 690 l 232 0 m 203 800 l 94 800 l 228 1011 l 397 1011 l 203 800 z "},"î":{"ha":347,"x_min":-29,"x_max":375,"o":"m 375 797 l 279 797 l 169 911 l 64 799 l -29 799 l 113 1013 l 228 1013 l 375 797 m 232 0 l 117 0 l 117 608 q 113 628 117 610 q 104 667 108 647 q 100 690 100 688 l 232 690 l 232 0 z "},"ï":{"ha":347,"x_min":-17,"x_max":367,"o":"m 232 0 l 117 0 l 117 608 q 113 628 117 610 q 104 667 108 647 q 100 690 100 688 l 232 690 l 232 0 m 367 867 q 343 811 367 835 q 288 788 319 788 q 233 811 256 788 q 210 867 210 835 q 233 922 210 899 q 288 946 256 946 q 344 923 321 946 q 367 867 367 900 m 140 867 q 117 811 140 835 q 61 788 93 788 q 6 811 29 788 q -17 867 -17 835 q 6 922 -17 899 q 61 946 29 946 q 117 923 94 946 q 140 867 140 900 z "},"ð":{"ha":744,"x_min":63,"x_max":682,"o":"m 556 1013 l 415 935 q 682 343 682 615 q 599 90 682 193 q 372 -14 515 -14 q 146 90 229 -14 q 63 343 63 193 q 147 597 63 493 q 372 701 231 701 q 465 683 419 701 q 332 889 410 790 l 186 808 l 143 864 l 288 944 q 208 1026 251 985 l 285 1072 q 368 989 342 1018 l 517 1071 l 556 1013 m 560 343 q 544 465 560 407 q 485 571 529 524 q 372 618 440 618 q 260 570 306 618 q 200 464 215 522 q 185 343 185 406 q 200 222 185 279 q 260 117 215 164 q 372 69 306 69 q 463 96 424 69 q 522 165 501 122 q 551 252 542 207 q 560 343 560 297 z "},"ñ":{"ha":760,"x_min":65,"x_max":644,"o":"m 539 933 l 604 933 q 567 838 599 881 q 486 796 536 796 q 380 823 446 796 q 279 850 314 850 q 250 839 264 850 q 232 813 236 828 l 163 813 q 206 910 171 868 q 293 951 240 951 q 399 924 333 951 q 489 897 464 897 q 539 933 519 897 m 644 0 l 531 0 l 531 424 q 529 476 531 456 q 522 524 528 497 q 503 566 515 550 q 469 593 492 582 q 414 604 446 604 q 225 513 322 604 l 225 0 l 111 0 l 111 489 q 65 685 111 622 l 192 701 q 218 603 213 649 q 433 707 322 707 q 594 641 543 707 q 644 461 644 575 l 644 0 z "},"ò":{"ha":744,"x_min":61,"x_max":685,"o":"m 372 -18 q 144 88 226 -18 q 61 344 61 194 q 144 600 61 493 q 372 707 228 707 q 602 601 519 707 q 685 344 685 496 q 602 88 685 193 q 372 -18 519 -18 m 372 69 q 485 115 440 69 q 547 220 531 161 q 563 344 563 279 q 546 469 563 410 q 484 574 529 528 q 372 619 439 619 q 260 574 306 619 q 199 469 215 528 q 183 344 183 410 q 201 224 183 283 q 265 117 219 164 q 372 69 310 69 m 436 799 l 328 799 l 133 1010 l 304 1010 l 436 799 z "},"ó":{"ha":744,"x_min":61,"x_max":685,"o":"m 426 799 l 318 799 l 451 1010 l 621 1010 l 426 799 m 372 -18 q 144 88 226 -18 q 61 344 61 194 q 144 600 61 493 q 372 707 228 707 q 602 601 519 707 q 685 344 685 496 q 602 88 685 193 q 372 -18 519 -18 m 372 69 q 485 115 440 69 q 547 220 531 161 q 563 344 563 279 q 546 469 563 410 q 484 574 529 528 q 372 619 439 619 q 260 574 306 619 q 199 469 215 528 q 183 344 183 410 q 201 224 183 283 q 265 117 219 164 q 372 69 310 69 z "},"ô":{"ha":744,"x_min":61,"x_max":685,"o":"m 576 794 l 481 794 l 371 908 l 265 796 l 172 796 l 314 1010 l 429 1010 l 576 794 m 372 -18 q 144 88 226 -18 q 61 344 61 194 q 144 600 61 493 q 372 707 228 707 q 602 601 519 707 q 685 344 685 496 q 602 88 685 193 q 372 -18 519 -18 m 372 69 q 485 115 440 69 q 547 220 531 161 q 563 344 563 279 q 546 469 563 410 q 484 574 529 528 q 372 619 439 619 q 260 574 306 619 q 199 469 215 528 q 183 344 183 410 q 201 224 183 283 q 265 117 219 164 q 372 69 310 69 z "},"õ":{"ha":744,"x_min":61,"x_max":685,"o":"m 543 933 l 608 933 q 572 838 603 881 q 490 796 540 796 q 384 823 450 796 q 283 850 318 850 q 236 813 253 850 l 168 813 q 210 910 175 868 q 299 951 244 951 q 403 924 338 951 q 493 897 468 897 q 543 933 531 897 m 372 -18 q 144 88 226 -18 q 61 344 61 194 q 144 600 61 493 q 372 707 228 707 q 602 601 519 707 q 685 344 685 496 q 602 88 685 193 q 372 -18 519 -18 m 372 69 q 485 115 440 69 q 547 220 531 161 q 563 344 563 279 q 546 469 563 410 q 484 574 529 528 q 372 619 439 619 q 260 574 306 619 q 199 469 215 528 q 183 344 183 410 q 201 224 183 283 q 265 117 219 164 q 372 69 310 69 z "},"ö":{"ha":744,"x_min":61,"x_max":685,"o":"m 569 867 q 546 811 569 835 q 490 788 522 788 q 435 811 458 788 q 413 867 413 835 q 435 922 413 899 q 490 946 458 946 q 547 923 524 946 q 569 867 569 900 m 343 867 q 319 811 343 835 q 264 788 296 788 q 209 811 232 788 q 186 867 186 835 q 209 922 186 899 q 264 946 232 946 q 320 923 297 946 q 343 867 343 900 m 372 -18 q 144 88 226 -18 q 61 344 61 194 q 144 600 61 493 q 372 707 228 707 q 602 601 519 707 q 685 344 685 496 q 602 88 685 193 q 372 -18 519 -18 m 372 69 q 485 115 440 69 q 547 220 531 161 q 563 344 563 279 q 546 469 563 410 q 484 574 529 528 q 372 619 439 619 q 260 574 306 619 q 199 469 215 528 q 183 344 183 410 q 201 224 183 283 q 265 117 219 164 q 372 69 310 69 z "},"÷":{"ha":875,"x_min":94,"x_max":788,"o":"m 497 633 q 522 574 522 608 q 498 515 522 539 q 439 490 474 490 q 379 515 404 490 q 354 574 354 539 q 379 633 354 608 q 439 658 404 658 q 497 633 474 658 m 788 293 l 94 293 l 94 390 l 788 390 l 788 293 m 497 169 q 522 111 522 146 q 498 52 522 76 q 439 28 474 28 q 379 52 404 28 q 354 111 354 76 q 379 170 354 146 q 439 194 404 194 q 497 169 474 194 z "},"ø":{"ha":746,"x_min":61,"x_max":685,"o":"m 140 -96 l 75 -53 l 157 74 q 61 344 61 175 q 144 600 61 493 q 372 707 228 707 q 522 669 451 707 l 583 768 l 653 731 l 585 619 q 685 344 685 518 q 602 88 685 193 q 372 -18 519 -18 q 218 24 286 -18 l 140 -96 m 219 176 l 471 586 q 372 619 426 619 q 227 535 275 619 q 179 344 179 451 q 219 176 179 244 m 525 521 l 269 110 q 372 69 314 69 q 485 115 440 69 q 548 219 531 160 q 565 344 565 278 q 525 521 565 449 z "},"ù":{"ha":768,"x_min":93,"x_max":765,"o":"m 742 101 l 765 29 q 734 16 756 25 q 699 2 713 7 q 667 -8 686 -3 q 632 -12 647 -12 q 567 14 592 -12 q 535 82 542 40 q 322 -18 438 -18 q 162 48 213 -18 q 111 228 111 114 l 111 608 q 107 628 111 610 q 98 667 103 647 q 93 690 93 688 l 226 690 l 226 265 q 230 201 226 228 q 244 146 233 175 q 279 101 254 117 q 342 85 304 85 q 475 134 419 85 q 531 261 531 183 l 531 608 q 526 628 531 610 q 517 667 522 647 q 513 690 513 688 l 646 690 l 646 135 q 652 94 646 107 q 676 82 658 82 q 742 101 693 82 m 435 799 l 326 799 l 132 1010 l 303 1010 l 435 799 z "},"ú":{"ha":768,"x_min":93,"x_max":765,"o":"m 422 799 l 314 799 l 447 1010 l 617 1010 l 422 799 m 742 101 l 765 29 q 734 16 756 25 q 699 2 713 7 q 667 -8 686 -3 q 632 -12 647 -12 q 567 14 592 -12 q 535 82 542 40 q 322 -18 438 -18 q 162 48 213 -18 q 111 228 111 114 l 111 608 q 107 628 111 610 q 98 667 103 647 q 93 690 93 688 l 226 690 l 226 265 q 230 201 226 228 q 244 146 233 175 q 279 101 254 117 q 342 85 304 85 q 475 134 419 85 q 531 261 531 183 l 531 608 q 526 628 531 610 q 517 667 522 647 q 513 690 513 688 l 646 690 l 646 135 q 652 94 646 107 q 676 82 658 82 q 742 101 693 82 z "},"û":{"ha":768,"x_min":93,"x_max":765,"o":"m 572 785 l 476 785 l 367 899 l 261 786 l 168 786 l 310 1000 l 425 1000 l 572 785 m 742 101 l 765 29 q 734 16 756 25 q 699 2 713 7 q 667 -8 686 -3 q 632 -12 647 -12 q 567 14 592 -12 q 535 82 542 40 q 322 -18 438 -18 q 162 48 213 -18 q 111 228 111 114 l 111 608 q 107 628 111 610 q 98 667 103 647 q 93 690 93 688 l 226 690 l 226 265 q 230 201 226 228 q 244 146 233 175 q 279 101 254 117 q 342 85 304 85 q 475 134 419 85 q 531 261 531 183 l 531 608 q 526 628 531 610 q 517 667 522 647 q 513 690 513 688 l 646 690 l 646 135 q 652 94 646 107 q 676 82 658 82 q 742 101 693 82 z "},"ü":{"ha":768,"x_min":93,"x_max":765,"o":"m 564 867 q 540 811 564 835 q 485 788 517 788 q 430 811 453 788 q 407 867 407 835 q 430 922 407 899 q 485 946 453 946 q 541 923 518 946 q 564 867 564 900 m 338 867 q 314 811 338 835 q 258 788 290 788 q 203 811 226 788 q 181 867 181 835 q 203 922 181 899 q 258 946 226 946 q 315 923 292 946 q 338 867 338 900 m 742 101 l 765 29 q 734 16 756 25 q 699 2 713 7 q 667 -8 686 -3 q 632 -12 647 -12 q 567 14 592 -12 q 535 82 542 40 q 322 -18 438 -18 q 162 48 213 -18 q 111 228 111 114 l 111 608 q 107 628 111 610 q 98 667 103 647 q 93 690 93 688 l 226 690 l 226 265 q 230 201 226 228 q 244 146 233 175 q 279 101 254 117 q 342 85 304 85 q 475 134 419 85 q 531 261 531 183 l 531 608 q 526 628 531 610 q 517 667 522 647 q 513 690 513 688 l 646 690 l 646 135 q 652 94 646 107 q 676 82 658 82 q 742 101 693 82 z "},"ý":{"ha":633,"x_min":17,"x_max":617,"o":"m 385 793 l 276 793 l 410 1004 l 579 1004 l 385 793 m 106 -301 l 53 -301 l 53 -208 l 68 -208 q 143 -190 110 -208 q 201 -135 176 -171 q 240 -68 225 -99 q 269 6 254 -37 l 17 690 l 142 690 l 325 165 l 508 690 l 617 690 l 372 -3 q 106 -301 265 -301 z "},"þ":{"ha":774,"x_min":97,"x_max":710,"o":"m 231 -294 l 117 -294 l 117 978 q 112 998 117 979 q 102 1036 107 1017 q 97 1058 97 1056 l 231 1058 l 231 608 q 440 700 322 700 q 591 647 528 700 q 682 516 654 593 q 710 351 710 439 q 628 92 710 199 q 408 -15 547 -15 q 231 60 301 -15 l 231 -294 m 231 517 l 231 283 q 276 129 231 190 q 404 68 322 68 q 492 95 454 68 q 549 165 529 122 q 578 254 569 208 q 588 346 588 300 q 543 528 588 449 q 404 608 499 608 q 231 517 307 608 z "},"ÿ":{"ha":633,"x_min":17,"x_max":617,"o":"m 521 872 q 497 817 521 840 q 442 793 474 793 q 387 817 410 793 q 364 872 364 840 q 387 928 364 904 q 442 951 410 951 q 498 928 475 951 q 521 872 521 906 m 294 872 q 271 817 294 840 q 215 793 247 793 q 160 817 183 793 q 138 872 138 840 q 160 928 138 904 q 215 951 183 951 q 272 928 249 951 q 294 872 294 906 m 106 -301 l 53 -301 l 53 -208 l 68 -208 q 143 -190 110 -208 q 201 -135 176 -171 q 240 -68 225 -99 q 269 6 254 -37 l 17 690 l 142 690 l 325 165 l 508 690 l 617 690 l 372 -3 q 106 -301 265 -301 z "},"ı":{"ha":350,"x_min":100,"x_max":232,"o":"m 232 0 l 117 0 l 117 608 q 113 628 117 610 q 104 667 108 647 q 100 690 100 688 l 232 690 l 232 0 z "},"Ł":{"ha":685,"x_min":11,"x_max":674,"o":"m 674 0 l 119 0 l 119 385 l 11 335 l 11 431 l 119 481 l 119 919 q 115 942 119 921 q 105 985 110 963 q 100 1011 100 1008 l 249 1011 l 249 540 l 535 674 l 535 578 l 249 444 l 249 96 l 674 96 l 674 0 z "},"ł":{"ha":343,"x_min":15,"x_max":328,"o":"m 229 0 l 114 0 l 114 414 l 15 368 l 15 464 l 114 510 l 114 976 q 110 996 114 978 q 101 1034 106 1014 q 96 1057 96 1054 l 229 1057 l 229 564 l 328 610 l 328 514 l 229 468 l 229 0 z "},"Œ":{"ha":1456,"x_min":71,"x_max":1418,"o":"m 1418 0 l 831 0 l 831 131 q 514 -17 710 -17 q 317 26 404 -17 q 178 142 231 68 q 98 308 125 215 q 71 506 71 400 q 188 876 71 729 q 522 1024 304 1024 q 832 879 721 1024 l 832 1011 l 1418 1011 l 1418 914 l 961 914 l 961 569 l 1315 569 l 1315 469 l 961 469 l 961 99 l 1418 99 l 1418 0 m 831 506 q 814 657 831 585 q 763 792 797 729 q 665 892 728 854 q 518 929 603 929 q 371 892 433 929 q 274 790 308 854 q 223 655 239 726 q 207 504 207 583 q 223 353 207 425 q 274 219 239 282 q 371 118 308 156 q 518 81 433 81 q 666 118 603 81 q 764 219 729 156 q 815 353 799 282 q 831 506 831 425 z "},"œ":{"ha":1169,"x_min":61,"x_max":1122,"o":"m 1068 144 l 1117 60 q 885 -18 1028 -18 q 735 17 806 -18 q 624 117 665 53 q 374 -18 538 -18 q 144 88 228 -18 q 61 344 61 194 q 145 600 61 493 q 374 707 229 707 q 625 569 539 707 q 727 669 664 632 q 863 707 790 707 q 1051 634 979 707 q 1122 444 1122 561 q 1057 356 1122 356 l 686 356 q 707 224 688 283 q 776 122 726 164 q 899 79 825 79 q 988 98 940 79 q 1068 144 1035 117 m 696 442 l 976 442 q 994 442 989 442 q 1005 449 1000 443 q 1010 467 1010 454 q 974 576 1010 532 q 874 619 938 619 q 757 565 807 619 q 696 442 707 511 m 374 69 q 487 115 442 69 q 549 219 532 161 q 565 344 565 278 q 548 468 565 408 q 485 574 531 528 q 374 619 440 619 q 228 535 276 619 q 181 344 181 450 q 199 223 181 283 q 264 116 218 163 q 374 69 310 69 z "},"Š":{"ha":717,"x_min":44,"x_max":674,"o":"m 44 58 l 94 172 q 206 108 140 132 q 331 83 271 83 q 472 125 410 83 q 535 246 535 167 q 509 330 535 294 q 443 388 483 365 q 353 431 403 411 q 253 472 303 450 q 164 520 204 493 q 98 592 124 547 q 72 694 72 636 q 167 876 72 808 q 389 943 263 943 q 650 868 524 943 l 586 775 q 388 844 489 844 q 260 809 310 844 q 211 706 211 774 q 259 615 211 653 q 374 550 307 576 q 510 492 442 524 q 626 403 578 461 q 674 264 674 346 q 574 56 674 128 q 326 -17 474 -17 q 44 58 190 -17 m 425 968 l 308 968 l 164 1213 l 260 1213 l 367 1069 l 474 1213 l 568 1213 l 425 968 z "},"š":{"ha":597,"x_min":71,"x_max":526,"o":"m 357 767 l 240 767 l 96 1011 l 192 1011 l 299 868 l 406 1011 l 500 1011 l 357 767 m 71 40 l 119 125 q 267 69 200 69 q 365 92 324 69 q 407 167 407 114 q 374 240 407 208 q 292 293 340 271 q 197 340 244 315 q 117 406 150 364 q 83 506 83 447 q 154 655 83 603 q 326 707 225 707 q 511 658 432 707 l 471 569 q 339 619 406 619 q 243 597 285 619 q 201 525 201 575 q 235 452 201 483 q 316 399 268 421 q 412 353 364 378 q 493 286 460 329 q 526 183 526 243 q 456 31 526 81 q 278 -18 386 -18 q 71 40 185 -18 z "},"Ÿ":{"ha":811,"x_min":44,"x_max":768,"o":"m 476 0 l 344 0 l 344 417 l 44 929 l 193 929 l 428 535 l 646 929 l 768 929 l 476 417 l 476 0 m 611 1075 q 588 1019 611 1043 q 532 996 564 996 q 477 1019 500 996 q 454 1075 454 1043 q 477 1131 454 1107 q 532 1154 500 1154 q 588 1131 565 1154 q 611 1075 611 1108 m 385 1075 q 361 1019 385 1043 q 306 996 338 996 q 251 1019 274 996 q 228 1075 228 1043 q 251 1131 228 1107 q 306 1154 274 1154 q 362 1131 339 1154 q 385 1075 385 1108 z "},"Ž":{"ha":793,"x_min":49,"x_max":746,"o":"m 735 0 l 49 0 l 49 93 l 574 832 l 79 832 l 79 928 l 728 928 l 728 835 l 203 96 l 746 96 l 735 0 m 474 968 l 357 968 l 213 1213 l 308 1213 l 415 1069 l 522 1213 l 617 1213 l 474 968 z "},"ž":{"ha":618,"x_min":44,"x_max":574,"o":"m 375 765 l 258 765 l 114 1010 l 210 1010 l 317 867 l 424 1010 l 518 1010 l 375 765 m 558 0 l 44 0 l 44 65 l 401 601 l 76 601 l 76 690 l 557 690 l 557 624 l 199 88 l 574 88 l 558 0 z "},"ƒ":{"ha":413,"x_min":-136,"x_max":547,"o":"m -136 -301 l -112 -218 l -104 -218 q -24 -179 -56 -218 q 17 -87 7 -140 l 136 603 l 28 603 l 28 676 q 113 682 104 681 q 153 725 136 688 q 184 812 169 763 q 223 910 199 861 q 301 992 247 958 q 435 1025 356 1025 q 547 988 493 1025 l 519 890 q 406 936 481 936 q 268 690 313 936 l 465 690 l 440 603 l 256 603 q 147 -43 199 218 q 65 -231 125 -157 q -100 -304 6 -304 q -136 -301 -125 -304 z "},"ˆ":{"ha":382,"x_min":-11,"x_max":393,"o":"m 393 785 l 297 785 l 188 899 l 82 786 l -11 786 l 131 1000 l 246 1000 l 393 785 z "},"ˇ":{"ha":382,"x_min":-11,"x_max":393,"o":"m 250 760 l 133 760 l -11 1004 l 85 1004 l 192 861 l 299 1004 l 393 1004 l 250 760 z "},"˘":{"ha":383,"x_min":-3,"x_max":385,"o":"m 317 974 l 385 974 q 192 781 364 781 q 56 833 104 781 q -3 974 7 885 l 67 974 q 192 876 88 876 q 317 974 294 876 z "},"˙":{"ha":396,"x_min":107,"x_max":290,"o":"m 107 868 q 133 933 107 907 q 199 960 160 960 q 263 933 236 960 q 290 868 290 906 q 263 803 290 831 q 199 776 236 776 q 134 803 161 776 q 107 868 107 831 z "},"˚":{"ha":390,"x_min":57,"x_max":332,"o":"m 332 903 q 291 806 332 847 q 194 765 250 765 q 98 806 139 765 q 57 903 57 847 q 98 1001 57 960 q 194 1042 139 1042 q 292 1001 251 1042 q 332 903 332 960 m 242 856 q 261 903 261 875 q 242 950 261 931 q 194 969 222 969 q 147 950 167 969 q 128 903 128 931 q 147 856 128 875 q 194 836 167 836 q 242 856 222 836 z "},"˛":{"ha":388,"x_min":35,"x_max":353,"o":"m 329 -160 l 353 -211 q 168 -281 261 -281 q 72 -251 110 -281 q 35 -164 35 -221 q 122 -36 35 -93 q 293 35 210 21 l 321 19 q 294 5 317 17 q 261 -13 271 -7 q 231 -33 251 -19 q 199 -56 210 -46 q 174 -81 188 -67 q 156 -111 161 -96 q 150 -142 150 -126 q 218 -204 150 -204 q 329 -160 257 -204 z "},"˜":{"ha":490,"x_min":22,"x_max":463,"o":"m 397 933 l 463 933 q 426 838 457 881 q 344 796 394 796 q 238 823 304 796 q 138 850 172 850 q 90 813 107 850 l 22 813 q 64 910 29 868 q 153 951 99 951 q 257 924 192 951 q 347 897 322 897 q 397 933 385 897 z "},"˝":{"ha":563,"x_min":47,"x_max":519,"o":"m 329 774 l 244 774 l 357 1010 l 519 1010 l 329 774 m 133 774 l 47 774 l 160 1010 l 324 1010 l 133 774 z "},"π":{"ha":929,"x_min":58,"x_max":871,"o":"m 836 721 l 871 664 q 713 596 821 601 q 649 238 649 401 q 667 135 649 181 q 732 90 686 90 q 792 104 761 90 q 806 74 796 97 q 824 39 817 51 q 697 -7 771 -7 q 599 33 638 -7 q 546 125 560 74 q 532 238 532 176 q 610 596 532 444 l 374 596 l 374 469 q 371 349 374 399 q 356 231 368 299 q 322 117 344 164 q 258 29 300 71 q 158 -33 217 -12 q 124 18 128 13 q 217 113 183 51 q 250 249 250 175 l 250 546 q 254 574 250 556 q 258 596 258 592 q 172 562 208 592 q 124 485 135 532 q 58 503 79 496 q 124 639 64 588 q 283 690 183 690 l 700 690 q 836 721 785 690 z "},"–":{"ha":697,"x_min":11,"x_max":685,"o":"m 685 319 l 11 319 l 11 406 l 685 406 l 685 319 z "},"—":{"ha":1183,"x_min":11,"x_max":1171,"o":"m 1171 319 l 11 319 l 11 404 l 1171 404 l 1171 319 z "},"‘":{"ha":397,"x_min":99,"x_max":289,"o":"m 240 1018 q 288 971 265 996 q 272 955 285 967 q 253 935 260 943 q 237 916 246 928 q 224 893 228 904 q 219 872 219 882 q 254 824 219 857 q 289 753 289 792 q 265 694 289 718 q 204 669 240 669 q 127 704 156 669 q 99 788 99 739 q 240 1018 99 915 z "},"’":{"ha":397,"x_min":104,"x_max":294,"o":"m 106 717 q 121 733 108 721 q 140 752 133 744 q 156 772 147 760 q 169 794 165 783 q 174 815 174 806 q 139 863 174 831 q 104 935 104 896 q 129 994 104 969 q 190 1018 154 1018 q 267 983 239 1018 q 294 900 294 949 q 153 669 294 772 q 106 717 128 692 z "},"‚":{"ha":383,"x_min":96,"x_max":286,"o":"m 97 -129 q 113 -113 100 -125 q 132 -94 125 -101 q 148 -74 139 -86 q 161 -51 157 -62 q 165 -31 165 -40 q 131 17 165 -15 q 96 89 96 50 q 121 148 96 124 q 182 172 146 172 q 258 138 231 172 q 286 54 286 103 q 144 -176 286 -74 q 97 -129 119 -154 z "},"“":{"ha":676,"x_min":99,"x_max":560,"o":"m 240 1018 q 288 971 265 996 q 272 955 285 967 q 253 935 260 943 q 237 916 246 928 q 224 893 228 904 q 219 872 219 882 q 254 824 219 857 q 289 753 289 792 q 265 694 289 718 q 204 669 240 669 q 127 704 156 669 q 99 788 99 739 q 240 1018 99 915 m 511 1018 q 558 971 536 996 q 543 955 556 967 q 524 935 531 943 q 508 916 517 928 q 494 893 499 904 q 490 872 490 882 q 525 824 490 857 q 560 753 560 792 q 535 694 560 718 q 475 669 511 669 q 398 704 426 669 q 369 788 369 739 q 511 1018 369 915 z "},"”":{"ha":676,"x_min":110,"x_max":571,"o":"m 111 717 q 126 733 114 721 q 146 752 139 744 q 162 772 153 760 q 175 794 171 783 q 179 815 179 806 q 144 863 179 831 q 110 935 110 896 q 135 994 110 969 q 196 1018 160 1018 q 272 983 244 1018 q 300 900 300 949 q 158 669 300 772 q 111 717 133 692 m 382 717 q 397 733 385 721 q 417 752 410 744 q 433 772 424 760 q 446 794 442 783 q 450 815 450 806 q 415 863 450 831 q 381 935 381 896 q 406 994 381 969 q 467 1018 431 1018 q 543 983 515 1018 q 571 900 571 949 q 429 669 571 772 q 382 717 404 692 z "},"„":{"ha":663,"x_min":104,"x_max":557,"o":"m 106 -129 q 121 -113 108 -125 q 140 -94 133 -101 q 156 -74 147 -86 q 169 -51 165 -62 q 174 -31 174 -40 q 139 17 174 -15 q 104 89 104 50 q 129 148 104 124 q 190 172 154 172 q 267 138 239 172 q 294 54 294 103 q 153 -176 294 -74 q 106 -129 128 -154 m 368 -129 q 383 -113 371 -125 q 403 -94 396 -101 q 419 -74 410 -86 q 432 -51 428 -62 q 436 -31 436 -40 q 401 17 436 -15 q 367 89 367 50 q 392 148 367 124 q 453 172 417 172 q 529 138 501 172 q 557 54 557 103 q 415 -176 557 -74 q 368 -129 390 -154 z "},"†":{"ha":726,"x_min":71,"x_max":669,"o":"m 404 -192 l 340 -192 l 315 222 q 308 314 314 246 q 303 429 303 382 q 310 486 303 444 q 326 580 317 528 q 338 642 336 632 l 163 611 l 71 674 l 163 735 l 338 700 l 301 914 l 367 1028 l 439 914 l 401 700 l 581 735 l 669 668 l 581 611 l 401 642 q 413 581 403 633 q 431 485 424 528 q 438 429 438 443 q 435 361 438 393 q 431 290 433 329 q 426 222 428 251 l 404 -192 z "},"‡":{"ha":726,"x_min":71,"x_max":669,"o":"m 375 -193 l 301 -85 l 338 129 l 163 94 l 71 163 l 163 215 l 339 188 q 326 259 336 203 q 310 363 317 315 q 303 429 303 411 q 310 486 303 444 q 326 580 317 528 q 338 642 336 632 l 163 611 l 71 674 l 163 735 l 338 700 l 301 914 l 367 1028 l 439 914 l 401 700 l 581 735 l 669 668 l 581 611 l 401 642 q 413 582 403 635 q 431 482 422 529 q 439 429 439 435 q 433 363 439 410 q 417 259 426 315 q 406 188 407 203 l 576 215 l 669 156 l 576 94 l 407 129 l 439 -85 l 375 -193 z "},"•":{"ha":613,"x_min":83,"x_max":529,"o":"m 464 338 q 307 272 400 272 q 149 338 214 272 q 83 496 83 403 q 149 654 83 589 q 307 719 214 719 q 465 654 400 719 q 529 496 529 589 q 464 338 529 403 z "},"…":{"ha":992,"x_min":114,"x_max":883,"o":"m 114 74 q 140 139 114 113 q 206 165 167 165 q 270 138 243 165 q 297 74 297 111 q 270 9 297 36 q 206 -18 243 -18 q 141 9 168 -18 q 114 74 114 36 m 407 74 q 433 139 407 113 q 499 165 460 165 q 563 138 536 165 q 590 74 590 111 q 563 9 590 36 q 499 -18 536 -18 q 434 9 461 -18 q 407 74 407 36 m 700 74 q 726 139 700 113 q 792 165 753 165 q 856 138 829 165 q 883 74 883 111 q 856 9 883 36 q 792 -18 829 -18 q 727 9 754 -18 q 700 74 700 36 z "},"‰":{"ha":1594,"x_min":64,"x_max":1531,"o":"m 1310 -7 q 1139 75 1203 -7 q 1075 267 1075 157 q 1134 458 1075 381 q 1304 535 1193 535 q 1469 454 1408 535 q 1531 267 1531 374 q 1471 77 1531 161 q 1310 -7 1411 -7 m 824 -7 q 653 74 717 -7 q 589 267 589 156 q 648 458 589 381 q 817 535 707 535 q 982 454 921 535 q 1043 267 1043 374 q 983 78 1043 163 q 824 -7 924 -7 m 343 -18 l 254 -18 l 710 913 l 456 913 q 519 724 519 835 q 459 535 519 619 q 299 450 399 450 q 128 532 192 450 q 64 724 64 614 q 123 913 64 836 q 292 990 182 990 l 836 990 l 343 -18 m 1307 75 q 1395 136 1367 75 q 1424 264 1424 197 q 1413 344 1424 303 q 1375 420 1403 385 q 1306 456 1347 456 q 1213 391 1246 456 q 1179 261 1179 326 q 1213 135 1179 196 q 1307 75 1246 75 m 821 75 q 890 110 863 75 q 926 184 917 144 q 936 264 936 224 q 926 344 936 303 q 888 420 915 385 q 818 456 860 456 q 748 420 778 456 q 706 342 718 385 q 693 261 693 300 q 726 135 693 196 q 821 75 760 75 m 296 532 q 365 567 338 532 q 403 642 393 601 q 413 721 413 682 q 402 802 413 761 q 363 878 392 843 q 293 913 335 913 q 223 877 253 913 q 181 799 193 842 q 168 718 168 757 q 201 592 168 653 q 296 532 235 532 z "},"‹":{"ha":414,"x_min":63,"x_max":351,"o":"m 351 249 l 269 238 l 63 463 l 264 690 l 349 674 l 188 463 l 351 249 z "},"›":{"ha":457,"x_min":83,"x_max":372,"o":"m 167 235 l 83 246 l 249 460 l 88 671 l 172 688 l 372 460 l 167 235 z "},"⁄":{"ha":183,"x_min":-212,"x_max":397,"o":"m -124 -10 l -212 -10 l 306 1014 l 397 1014 l -124 -10 z "},"€":{"ha":728,"x_min":18,"x_max":653,"o":"m 622 101 l 653 14 q 497 -14 578 -14 q 268 57 358 -14 q 150 246 178 128 l 18 246 l 31 304 l 140 304 q 138 354 138 321 q 139 397 138 383 l 51 397 l 64 456 l 147 456 q 265 647 175 575 q 494 719 356 719 q 642 696 567 719 l 621 606 q 494 633 567 633 q 347 585 401 633 q 271 456 292 536 l 588 456 l 575 397 l 260 397 q 258 353 258 368 q 261 304 258 335 l 554 304 l 542 246 l 274 246 q 353 122 296 168 q 500 75 410 75 q 622 101 568 75 z "},"™":{"ha":789,"x_min":68,"x_max":700,"o":"m 700 685 l 632 685 l 632 894 q 557 703 606 822 l 550 685 l 508 685 q 469 788 497 714 q 425 900 440 861 l 425 685 l 367 685 l 367 997 l 458 997 l 535 796 l 611 997 l 700 997 l 700 685 m 236 686 l 167 686 l 167 946 l 68 946 l 68 997 l 336 997 l 336 946 l 236 946 l 236 686 z "},"Ω":{"ha":1086,"x_min":78,"x_max":1007,"o":"m 1007 0 l 649 0 l 649 74 q 769 169 721 101 q 837 316 818 238 q 856 483 856 394 q 839 638 856 564 q 788 778 822 713 q 690 884 753 844 q 543 924 626 924 q 397 884 460 924 q 299 778 333 844 q 247 638 264 713 q 231 483 231 564 q 281 228 231 343 q 436 74 331 114 l 436 0 l 78 0 l 78 96 l 179 96 l 272 89 q 142 262 190 149 q 94 501 94 375 q 212 872 94 725 q 543 1019 329 1019 q 874 872 757 1019 q 992 501 992 725 q 944 262 992 375 q 814 89 896 149 l 907 96 l 1007 96 l 1007 0 z "},"∂":{"ha":771,"x_min":65,"x_max":676,"o":"m 539 493 q 533 550 535 536 q 455 824 528 729 q 286 918 382 918 q 210 908 244 918 q 161 888 175 897 l 146 878 q 100 949 126 911 q 122 969 107 957 q 190 1000 138 981 q 304 1019 243 1019 q 572 872 468 1019 q 676 463 676 725 q 643 228 676 326 q 556 79 610 129 q 448 8 501 29 q 340 -14 394 -14 q 252 0 296 -14 q 164 44 208 14 q 92 133 119 74 q 65 271 65 192 q 94 407 65 347 q 168 501 124 467 q 260 552 213 535 q 350 569 307 569 q 539 493 468 569 m 536 403 q 369 472 467 472 q 242 407 292 472 q 193 258 193 342 q 230 134 193 189 q 342 79 267 79 q 477 172 426 79 q 536 403 528 265 z "},"∆":{"ha":876,"x_min":21,"x_max":853,"o":"m 853 0 l 21 0 l 21 74 q 383 1004 142 385 l 492 1004 q 853 74 733 385 l 853 0 m 135 92 l 693 92 q 589 363 674 143 q 464 689 504 582 q 438 770 454 717 q 415 840 421 824 l 135 92 z "},"∏":{"ha":1157,"x_min":43,"x_max":1115,"o":"m 953 -317 l 819 -317 l 819 910 l 338 910 l 338 -317 l 204 -317 l 204 910 l 43 910 l 43 1006 l 1115 1006 l 1115 910 l 953 910 l 953 -317 z "},"∑":{"ha":1008,"x_min":76,"x_max":932,"o":"m 932 -317 l 76 -317 l 76 -181 q 479 369 210 3 q 300 608 446 414 q 76 908 154 803 l 76 1004 l 918 1004 l 918 908 l 244 908 q 626 408 351 769 q 193 -176 279 -67 l 932 -176 l 932 -317 z "},"−":{"ha":883,"x_min":100,"x_max":783,"o":"m 783 300 l 100 300 l 100 385 l 783 385 l 783 300 z "},"√":{"ha":840,"x_min":-64,"x_max":899,"o":"m 404 -319 l 289 -319 l 83 296 l -36 254 l -64 340 l 163 421 l 354 -156 l 799 1317 l 899 1317 l 404 -319 z "},"∞":{"ha":1128,"x_min":108,"x_max":1019,"o":"m 807 114 q 678 156 735 114 q 564 274 622 199 q 449 156 506 199 q 321 114 393 114 q 167 178 225 114 q 108 344 108 243 q 167 510 108 446 q 322 575 225 575 q 449 533 393 575 q 564 417 506 490 q 678 533 622 490 q 806 575 735 575 q 961 510 903 575 q 1019 344 1019 446 q 961 178 1019 243 q 807 114 903 114 m 806 463 q 711 431 754 463 q 622 344 668 399 q 808 228 719 228 q 895 259 863 228 q 928 344 928 290 q 894 431 928 399 q 806 463 860 463 m 506 344 q 453 401 476 379 q 394 443 431 424 q 322 463 358 463 q 234 431 268 463 q 200 344 200 399 q 233 259 200 290 q 319 228 265 228 q 506 344 408 228 z "},"∫":{"ha":356,"x_min":-10,"x_max":372,"o":"m -10 -314 l -10 -235 q 92 -187 57 -235 q 128 -78 128 -140 l 128 756 q 372 1019 128 1019 l 372 939 q 275 892 307 939 q 243 782 243 846 l 243 -50 q 180 -246 243 -178 q -10 -314 117 -314 z "},"≈":{"ha":913,"x_min":115,"x_max":793,"o":"m 185 403 l 115 447 q 184 532 133 486 q 301 578 235 578 q 463 530 369 578 q 601 482 556 482 q 678 513 643 482 q 722 567 713 543 q 793 522 769 538 q 761 474 782 500 q 697 420 740 449 q 606 392 653 392 q 446 440 539 392 q 306 488 353 488 q 185 403 242 488 m 185 138 l 115 182 q 184 267 133 221 q 301 313 235 313 q 463 265 369 313 q 601 217 556 217 q 678 247 643 217 q 722 301 713 278 q 793 257 769 272 q 761 209 782 235 q 697 155 740 183 q 606 126 653 126 q 446 174 539 126 q 306 222 353 222 q 185 138 242 222 z "},"≠":{"ha":886,"x_min":100,"x_max":785,"o":"m 785 165 l 422 165 l 358 -14 l 268 -14 l 332 165 l 100 165 l 100 251 l 364 251 l 431 433 l 100 433 l 100 519 l 461 519 l 528 703 l 617 703 l 550 519 l 785 519 l 785 433 l 519 433 l 453 251 l 785 251 l 785 165 z "},"≤":{"ha":875,"x_min":92,"x_max":783,"o":"m 783 121 l 92 358 l 92 463 l 783 697 l 783 590 l 225 408 l 783 226 l 783 121 m 783 0 l 92 0 l 92 97 l 783 97 l 783 0 z "},"≥":{"ha":875,"x_min":92,"x_max":783,"o":"m 783 358 l 92 121 l 92 226 l 650 408 l 92 590 l 92 697 l 783 463 l 783 358 m 783 0 l 92 0 l 92 97 l 783 97 l 783 0 z "},"◊":{"ha":700,"x_min":51,"x_max":649,"o":"m 558 500 l 349 904 q 142 500 210 635 q 350 90 304 179 q 446 280 374 136 q 558 500 518 424 m 378 -15 l 322 -15 l 51 500 q 137 664 92 578 q 237 855 182 750 q 322 1017 292 960 l 378 1017 q 463 855 408 960 q 563 664 518 750 q 649 500 608 578 l 378 -15 z "},"ﬁ":{"ha":789,"x_min":28,"x_max":676,"o":"m 676 -1 l 563 -1 l 563 603 l 247 603 l 247 -1 l 132 -1 l 132 603 l 28 603 l 28 675 q 45 676 29 675 q 65 678 61 678 q 83 682 69 679 q 101 688 96 685 q 115 697 107 692 q 128 711 124 703 q 135 731 132 719 q 145 789 139 750 q 151 832 151 828 q 242 1006 172 944 q 426 1068 311 1068 q 578 1028 511 1068 q 671 911 644 988 l 556 876 q 512 953 546 925 q 429 982 478 982 q 246 690 246 982 l 676 690 l 676 -1 z "},"ﬂ":{"ha":789,"x_min":28,"x_max":671,"o":"m 671 -1 l 557 -1 l 557 882 q 516 955 557 928 q 428 982 475 982 q 342 963 378 982 q 288 917 306 943 q 260 845 269 890 q 248 769 250 800 q 246 690 246 738 l 444 690 l 419 603 l 246 603 l 246 -1 l 132 -1 l 132 603 l 28 603 l 28 675 q 47 676 33 675 q 67 678 61 678 q 85 681 74 679 q 102 687 96 683 q 116 696 108 690 q 128 710 124 701 q 135 731 132 719 q 144 785 139 750 q 150 832 149 821 q 241 1006 171 943 q 425 1068 311 1068 q 581 1025 524 1068 l 671 1061 l 671 -1 z "}," ":{"ha":319,"x_min":0,"x_max":0,"o":"z "},"#":{"ha":889,"x_min":72,"x_max":817,"o":"m 553 -7 l 454 -7 l 500 328 l 346 328 l 299 -7 l 201 -7 l 247 328 l 72 328 l 72 418 l 260 418 l 282 586 l 108 586 l 108 678 l 294 678 l 338 1001 l 439 1001 l 393 678 l 549 678 l 592 1001 l 690 1001 l 646 678 l 817 678 l 817 586 l 635 586 l 611 418 l 783 418 l 783 328 l 599 328 l 553 -7 m 513 418 l 536 586 l 381 586 l 358 418 l 513 418 z "},"!":{"ha":457,"x_min":138,"x_max":321,"o":"m 269 301 l 188 301 l 147 990 q 171 1010 147 1010 l 285 1010 q 310 989 310 1010 l 269 301 m 138 74 q 164 139 138 113 q 229 165 190 165 q 294 138 267 165 q 321 74 321 111 q 294 9 321 36 q 229 -18 267 -18 q 165 9 192 -18 q 138 74 138 36 z "},"\"":{"ha":510,"x_min":96,"x_max":415,"o":"m 376 613 l 336 613 q 326 657 335 617 q 308 734 317 697 q 299 772 299 771 l 299 1019 l 415 1019 l 415 772 q 376 613 415 768 m 174 613 l 133 613 q 123 657 132 617 q 105 734 114 697 q 96 772 96 771 l 96 1019 l 213 1019 l 213 772 q 203 734 213 771 q 185 657 194 697 q 174 613 175 617 z "}}}
